G04 #@! TF.GenerationSoftware,KiCad,Pcbnew,6.0.11+dfsg-1*
G04 #@! TF.CreationDate,2024-06-12T11:52:24+08:00*
G04 #@! TF.ProjectId,DIY65C02.V2.CPU.Board,44495936-3543-4303-922e-56322e435055,rev?*
G04 #@! TF.SameCoordinates,Original*
G04 #@! TF.FileFunction,Legend,Top*
G04 #@! TF.FilePolarity,Positive*
%FSLAX46Y46*%
G04 Gerber Fmt 4.6, Leading zero omitted, Abs format (unit mm)*
G04 Created by KiCad (PCBNEW 6.0.11+dfsg-1) date 2024-06-12 11:52:24*
%MOMM*%
%LPD*%
G01*
G04 APERTURE LIST*
G04 #@! TA.AperFunction,Profile*
%ADD10C,0.100000*%
G04 #@! TD*
%ADD11C,0.150000*%
%ADD12C,0.300000*%
%ADD13C,0.120000*%
%ADD14C,0.125000*%
G04 APERTURE END LIST*
D10*
X59944000Y-49784000D02*
G75*
G03*
X57912000Y-51816000I0J-2032000D01*
G01*
X59940000Y-149782000D02*
X155825000Y-149782000D01*
X57908000Y-147750000D02*
G75*
G03*
X59940000Y-149782000I2032000J0D01*
G01*
X157861000Y-147828000D02*
X157861000Y-51816000D01*
X57912000Y-51816000D02*
X57912000Y-147828000D01*
X157861000Y-51816000D02*
G75*
G03*
X155829000Y-49784000I-2032000J0D01*
G01*
X155829000Y-49784000D02*
X59944000Y-49784000D01*
X155829000Y-149782000D02*
G75*
G03*
X157861000Y-147750000I0J2032000D01*
G01*
D11*
X91123285Y-58467571D02*
X91066142Y-58524714D01*
X90894714Y-58581857D01*
X90780428Y-58581857D01*
X90608999Y-58524714D01*
X90494714Y-58410428D01*
X90437571Y-58296142D01*
X90380428Y-58067571D01*
X90380428Y-57896142D01*
X90437571Y-57667571D01*
X90494714Y-57553285D01*
X90608999Y-57439000D01*
X90780428Y-57381857D01*
X90894714Y-57381857D01*
X91066142Y-57439000D01*
X91123285Y-57496142D01*
X91637571Y-58581857D02*
X91637571Y-57381857D01*
X92151857Y-58581857D02*
X92151857Y-57953285D01*
X92094714Y-57839000D01*
X91980428Y-57781857D01*
X91808999Y-57781857D01*
X91694714Y-57839000D01*
X91637571Y-57896142D01*
X93237571Y-58581857D02*
X93237571Y-57953285D01*
X93180428Y-57839000D01*
X93066142Y-57781857D01*
X92837571Y-57781857D01*
X92723285Y-57839000D01*
X93237571Y-58524714D02*
X93123285Y-58581857D01*
X92837571Y-58581857D01*
X92723285Y-58524714D01*
X92666142Y-58410428D01*
X92666142Y-58296142D01*
X92723285Y-58181857D01*
X92837571Y-58124714D01*
X93123285Y-58124714D01*
X93237571Y-58067571D01*
X93808999Y-58581857D02*
X93808999Y-57781857D01*
X93808999Y-58010428D02*
X93866142Y-57896142D01*
X93923285Y-57839000D01*
X94037571Y-57781857D01*
X94151857Y-57781857D01*
X94723285Y-58581857D02*
X94608999Y-58524714D01*
X94551857Y-58410428D01*
X94551857Y-57381857D01*
X95637571Y-58524714D02*
X95523285Y-58581857D01*
X95294714Y-58581857D01*
X95180428Y-58524714D01*
X95123285Y-58410428D01*
X95123285Y-57953285D01*
X95180428Y-57839000D01*
X95294714Y-57781857D01*
X95523285Y-57781857D01*
X95637571Y-57839000D01*
X95694714Y-57953285D01*
X95694714Y-58067571D01*
X95123285Y-58181857D01*
X96151857Y-58524714D02*
X96266142Y-58581857D01*
X96494714Y-58581857D01*
X96608999Y-58524714D01*
X96666142Y-58410428D01*
X96666142Y-58353285D01*
X96608999Y-58239000D01*
X96494714Y-58181857D01*
X96323285Y-58181857D01*
X96208999Y-58124714D01*
X96151857Y-58010428D01*
X96151857Y-57953285D01*
X96208999Y-57839000D01*
X96323285Y-57781857D01*
X96494714Y-57781857D01*
X96608999Y-57839000D01*
X98094714Y-58581857D02*
X98094714Y-57381857D01*
X98494714Y-58239000D01*
X98894714Y-57381857D01*
X98894714Y-58581857D01*
X99466142Y-58467571D02*
X99523285Y-58524714D01*
X99466142Y-58581857D01*
X99408999Y-58524714D01*
X99466142Y-58467571D01*
X99466142Y-58581857D01*
X100951857Y-58581857D02*
X100951857Y-57381857D01*
X100951857Y-57953285D02*
X101637571Y-57953285D01*
X101637571Y-58581857D02*
X101637571Y-57381857D01*
X102723285Y-58581857D02*
X102723285Y-57953285D01*
X102666142Y-57839000D01*
X102551857Y-57781857D01*
X102323285Y-57781857D01*
X102208999Y-57839000D01*
X102723285Y-58524714D02*
X102608999Y-58581857D01*
X102323285Y-58581857D01*
X102208999Y-58524714D01*
X102151857Y-58410428D01*
X102151857Y-58296142D01*
X102208999Y-58181857D01*
X102323285Y-58124714D01*
X102608999Y-58124714D01*
X102723285Y-58067571D01*
X103466142Y-58581857D02*
X103351857Y-58524714D01*
X103294714Y-58410428D01*
X103294714Y-57381857D01*
X104380428Y-58524714D02*
X104266142Y-58581857D01*
X104037571Y-58581857D01*
X103923285Y-58524714D01*
X103866142Y-58410428D01*
X103866142Y-57953285D01*
X103923285Y-57839000D01*
X104037571Y-57781857D01*
X104266142Y-57781857D01*
X104380428Y-57839000D01*
X104437571Y-57953285D01*
X104437571Y-58067571D01*
X103866142Y-58181857D01*
D12*
X90582857Y-55694761D02*
X90582857Y-53694761D01*
X91059047Y-53694761D01*
X91344761Y-53790000D01*
X91535238Y-53980476D01*
X91630476Y-54170952D01*
X91725714Y-54551904D01*
X91725714Y-54837619D01*
X91630476Y-55218571D01*
X91535238Y-55409047D01*
X91344761Y-55599523D01*
X91059047Y-55694761D01*
X90582857Y-55694761D01*
X92582857Y-55694761D02*
X92582857Y-53694761D01*
X93916190Y-54742380D02*
X93916190Y-55694761D01*
X93249523Y-53694761D02*
X93916190Y-54742380D01*
X94582857Y-53694761D01*
X96106666Y-53694761D02*
X95725714Y-53694761D01*
X95535238Y-53790000D01*
X95439999Y-53885238D01*
X95249523Y-54170952D01*
X95154285Y-54551904D01*
X95154285Y-55313809D01*
X95249523Y-55504285D01*
X95344761Y-55599523D01*
X95535238Y-55694761D01*
X95916190Y-55694761D01*
X96106666Y-55599523D01*
X96201904Y-55504285D01*
X96297142Y-55313809D01*
X96297142Y-54837619D01*
X96201904Y-54647142D01*
X96106666Y-54551904D01*
X95916190Y-54456666D01*
X95535238Y-54456666D01*
X95344761Y-54551904D01*
X95249523Y-54647142D01*
X95154285Y-54837619D01*
X98106666Y-53694761D02*
X97154285Y-53694761D01*
X97059047Y-54647142D01*
X97154285Y-54551904D01*
X97344761Y-54456666D01*
X97820952Y-54456666D01*
X98011428Y-54551904D01*
X98106666Y-54647142D01*
X98201904Y-54837619D01*
X98201904Y-55313809D01*
X98106666Y-55504285D01*
X98011428Y-55599523D01*
X97820952Y-55694761D01*
X97344761Y-55694761D01*
X97154285Y-55599523D01*
X97059047Y-55504285D01*
X100201904Y-55504285D02*
X100106666Y-55599523D01*
X99820952Y-55694761D01*
X99630476Y-55694761D01*
X99344761Y-55599523D01*
X99154285Y-55409047D01*
X99059047Y-55218571D01*
X98963809Y-54837619D01*
X98963809Y-54551904D01*
X99059047Y-54170952D01*
X99154285Y-53980476D01*
X99344761Y-53790000D01*
X99630476Y-53694761D01*
X99820952Y-53694761D01*
X100106666Y-53790000D01*
X100201904Y-53885238D01*
X101439999Y-53694761D02*
X101630476Y-53694761D01*
X101820952Y-53790000D01*
X101916190Y-53885238D01*
X102011428Y-54075714D01*
X102106666Y-54456666D01*
X102106666Y-54932857D01*
X102011428Y-55313809D01*
X101916190Y-55504285D01*
X101820952Y-55599523D01*
X101630476Y-55694761D01*
X101439999Y-55694761D01*
X101249523Y-55599523D01*
X101154285Y-55504285D01*
X101059047Y-55313809D01*
X100963809Y-54932857D01*
X100963809Y-54456666D01*
X101059047Y-54075714D01*
X101154285Y-53885238D01*
X101249523Y-53790000D01*
X101439999Y-53694761D01*
X102868571Y-53885238D02*
X102963809Y-53790000D01*
X103154285Y-53694761D01*
X103630476Y-53694761D01*
X103820952Y-53790000D01*
X103916190Y-53885238D01*
X104011428Y-54075714D01*
X104011428Y-54266190D01*
X103916190Y-54551904D01*
X102773333Y-55694761D01*
X104011428Y-55694761D01*
X106297142Y-55599523D02*
X106582857Y-55694761D01*
X107059047Y-55694761D01*
X107249523Y-55599523D01*
X107344761Y-55504285D01*
X107439999Y-55313809D01*
X107439999Y-55123333D01*
X107344761Y-54932857D01*
X107249523Y-54837619D01*
X107059047Y-54742380D01*
X106678095Y-54647142D01*
X106487619Y-54551904D01*
X106392380Y-54456666D01*
X106297142Y-54266190D01*
X106297142Y-54075714D01*
X106392380Y-53885238D01*
X106487619Y-53790000D01*
X106678095Y-53694761D01*
X107154285Y-53694761D01*
X107439999Y-53790000D01*
X108963809Y-54647142D02*
X109249523Y-54742380D01*
X109344761Y-54837619D01*
X109439999Y-55028095D01*
X109439999Y-55313809D01*
X109344761Y-55504285D01*
X109249523Y-55599523D01*
X109059047Y-55694761D01*
X108297142Y-55694761D01*
X108297142Y-53694761D01*
X108963809Y-53694761D01*
X109154285Y-53790000D01*
X109249523Y-53885238D01*
X109344761Y-54075714D01*
X109344761Y-54266190D01*
X109249523Y-54456666D01*
X109154285Y-54551904D01*
X108963809Y-54647142D01*
X108297142Y-54647142D01*
X111439999Y-55504285D02*
X111344761Y-55599523D01*
X111059047Y-55694761D01*
X110868571Y-55694761D01*
X110582857Y-55599523D01*
X110392380Y-55409047D01*
X110297142Y-55218571D01*
X110201904Y-54837619D01*
X110201904Y-54551904D01*
X110297142Y-54170952D01*
X110392380Y-53980476D01*
X110582857Y-53790000D01*
X110868571Y-53694761D01*
X111059047Y-53694761D01*
X111344761Y-53790000D01*
X111439999Y-53885238D01*
X113630476Y-54361428D02*
X114106666Y-55694761D01*
X114582857Y-54361428D01*
X115249523Y-53885238D02*
X115344761Y-53790000D01*
X115535238Y-53694761D01*
X116011428Y-53694761D01*
X116201904Y-53790000D01*
X116297142Y-53885238D01*
X116392380Y-54075714D01*
X116392380Y-54266190D01*
X116297142Y-54551904D01*
X115154285Y-55694761D01*
X116392380Y-55694761D01*
D11*
X91014285Y-60172380D02*
X91014285Y-60886666D01*
X90966666Y-61029523D01*
X90871428Y-61124761D01*
X90728571Y-61172380D01*
X90633333Y-61172380D01*
X91919047Y-61172380D02*
X91919047Y-60648571D01*
X91871428Y-60553333D01*
X91776190Y-60505714D01*
X91585714Y-60505714D01*
X91490476Y-60553333D01*
X91919047Y-61124761D02*
X91823809Y-61172380D01*
X91585714Y-61172380D01*
X91490476Y-61124761D01*
X91442857Y-61029523D01*
X91442857Y-60934285D01*
X91490476Y-60839047D01*
X91585714Y-60791428D01*
X91823809Y-60791428D01*
X91919047Y-60743809D01*
X92395238Y-60505714D02*
X92395238Y-61172380D01*
X92395238Y-60600952D02*
X92442857Y-60553333D01*
X92538095Y-60505714D01*
X92680952Y-60505714D01*
X92776190Y-60553333D01*
X92823809Y-60648571D01*
X92823809Y-61172380D01*
X93300000Y-61077142D02*
X93347619Y-61124761D01*
X93300000Y-61172380D01*
X93252380Y-61124761D01*
X93300000Y-61077142D01*
X93300000Y-61172380D01*
X94490476Y-60267619D02*
X94538095Y-60220000D01*
X94633333Y-60172380D01*
X94871428Y-60172380D01*
X94966666Y-60220000D01*
X95014285Y-60267619D01*
X95061904Y-60362857D01*
X95061904Y-60458095D01*
X95014285Y-60600952D01*
X94442857Y-61172380D01*
X95061904Y-61172380D01*
X95680952Y-60172380D02*
X95776190Y-60172380D01*
X95871428Y-60220000D01*
X95919047Y-60267619D01*
X95966666Y-60362857D01*
X96014285Y-60553333D01*
X96014285Y-60791428D01*
X95966666Y-60981904D01*
X95919047Y-61077142D01*
X95871428Y-61124761D01*
X95776190Y-61172380D01*
X95680952Y-61172380D01*
X95585714Y-61124761D01*
X95538095Y-61077142D01*
X95490476Y-60981904D01*
X95442857Y-60791428D01*
X95442857Y-60553333D01*
X95490476Y-60362857D01*
X95538095Y-60267619D01*
X95585714Y-60220000D01*
X95680952Y-60172380D01*
X96395238Y-60267619D02*
X96442857Y-60220000D01*
X96538095Y-60172380D01*
X96776190Y-60172380D01*
X96871428Y-60220000D01*
X96919047Y-60267619D01*
X96966666Y-60362857D01*
X96966666Y-60458095D01*
X96919047Y-60600952D01*
X96347619Y-61172380D01*
X96966666Y-61172380D01*
X97823809Y-60505714D02*
X97823809Y-61172380D01*
X97585714Y-60124761D02*
X97347619Y-60839047D01*
X97966666Y-60839047D01*
X131024333Y-60015380D02*
X130691000Y-59539190D01*
X130452904Y-60015380D02*
X130452904Y-59015380D01*
X130833857Y-59015380D01*
X130929095Y-59063000D01*
X130976714Y-59110619D01*
X131024333Y-59205857D01*
X131024333Y-59348714D01*
X130976714Y-59443952D01*
X130929095Y-59491571D01*
X130833857Y-59539190D01*
X130452904Y-59539190D01*
X131881476Y-59348714D02*
X131881476Y-60015380D01*
X131643380Y-58967761D02*
X131405285Y-59682047D01*
X132024333Y-59682047D01*
X132468952Y-58110380D02*
X131897523Y-58110380D01*
X132183238Y-58110380D02*
X132183238Y-57110380D01*
X132088000Y-57253238D01*
X131992761Y-57348476D01*
X131897523Y-57396095D01*
X132897523Y-58110380D02*
X132897523Y-57110380D01*
X132992761Y-57729428D02*
X133278476Y-58110380D01*
X133278476Y-57443714D02*
X132897523Y-57824666D01*
X128192380Y-92776666D02*
X127716190Y-93110000D01*
X128192380Y-93348095D02*
X127192380Y-93348095D01*
X127192380Y-92967142D01*
X127240000Y-92871904D01*
X127287619Y-92824285D01*
X127382857Y-92776666D01*
X127525714Y-92776666D01*
X127620952Y-92824285D01*
X127668571Y-92871904D01*
X127716190Y-92967142D01*
X127716190Y-93348095D01*
X127287619Y-92395714D02*
X127240000Y-92348095D01*
X127192380Y-92252857D01*
X127192380Y-92014761D01*
X127240000Y-91919523D01*
X127287619Y-91871904D01*
X127382857Y-91824285D01*
X127478095Y-91824285D01*
X127620952Y-91871904D01*
X128192380Y-92443333D01*
X128192380Y-91824285D01*
X149780666Y-76239571D02*
X149447333Y-76239571D01*
X149447333Y-76763380D02*
X149447333Y-75763380D01*
X149923523Y-75763380D01*
X150828285Y-76763380D02*
X150256857Y-76763380D01*
X150542571Y-76763380D02*
X150542571Y-75763380D01*
X150447333Y-75906238D01*
X150352095Y-76001476D01*
X150256857Y-76049095D01*
X79657780Y-87482066D02*
X79181590Y-87815400D01*
X79657780Y-88053495D02*
X78657780Y-88053495D01*
X78657780Y-87672542D01*
X78705400Y-87577304D01*
X78753019Y-87529685D01*
X78848257Y-87482066D01*
X78991114Y-87482066D01*
X79086352Y-87529685D01*
X79133971Y-87577304D01*
X79181590Y-87672542D01*
X79181590Y-88053495D01*
X78657780Y-87148733D02*
X78657780Y-86529685D01*
X79038733Y-86863019D01*
X79038733Y-86720161D01*
X79086352Y-86624923D01*
X79133971Y-86577304D01*
X79229209Y-86529685D01*
X79467304Y-86529685D01*
X79562542Y-86577304D01*
X79610161Y-86624923D01*
X79657780Y-86720161D01*
X79657780Y-87005876D01*
X79610161Y-87101114D01*
X79562542Y-87148733D01*
X142697295Y-93635580D02*
X142697295Y-94445104D01*
X142744914Y-94540342D01*
X142792533Y-94587961D01*
X142887771Y-94635580D01*
X143078247Y-94635580D01*
X143173485Y-94587961D01*
X143221104Y-94540342D01*
X143268723Y-94445104D01*
X143268723Y-93635580D01*
X144268723Y-94635580D02*
X143697295Y-94635580D01*
X143983009Y-94635580D02*
X143983009Y-93635580D01*
X143887771Y-93778438D01*
X143792533Y-93873676D01*
X143697295Y-93921295D01*
X132940714Y-147202380D02*
X133178809Y-148202380D01*
X133369285Y-147488095D01*
X133559761Y-148202380D01*
X133797857Y-147202380D01*
X134607380Y-147202380D02*
X134416904Y-147202380D01*
X134321666Y-147250000D01*
X134274047Y-147297619D01*
X134178809Y-147440476D01*
X134131190Y-147630952D01*
X134131190Y-148011904D01*
X134178809Y-148107142D01*
X134226428Y-148154761D01*
X134321666Y-148202380D01*
X134512142Y-148202380D01*
X134607380Y-148154761D01*
X134655000Y-148107142D01*
X134702619Y-148011904D01*
X134702619Y-147773809D01*
X134655000Y-147678571D01*
X134607380Y-147630952D01*
X134512142Y-147583333D01*
X134321666Y-147583333D01*
X134226428Y-147630952D01*
X134178809Y-147678571D01*
X134131190Y-147773809D01*
X135607380Y-147202380D02*
X135131190Y-147202380D01*
X135083571Y-147678571D01*
X135131190Y-147630952D01*
X135226428Y-147583333D01*
X135464523Y-147583333D01*
X135559761Y-147630952D01*
X135607380Y-147678571D01*
X135655000Y-147773809D01*
X135655000Y-148011904D01*
X135607380Y-148107142D01*
X135559761Y-148154761D01*
X135464523Y-148202380D01*
X135226428Y-148202380D01*
X135131190Y-148154761D01*
X135083571Y-148107142D01*
X136655000Y-148107142D02*
X136607380Y-148154761D01*
X136464523Y-148202380D01*
X136369285Y-148202380D01*
X136226428Y-148154761D01*
X136131190Y-148059523D01*
X136083571Y-147964285D01*
X136035952Y-147773809D01*
X136035952Y-147630952D01*
X136083571Y-147440476D01*
X136131190Y-147345238D01*
X136226428Y-147250000D01*
X136369285Y-147202380D01*
X136464523Y-147202380D01*
X136607380Y-147250000D01*
X136655000Y-147297619D01*
X137274047Y-147202380D02*
X137369285Y-147202380D01*
X137464523Y-147250000D01*
X137512142Y-147297619D01*
X137559761Y-147392857D01*
X137607380Y-147583333D01*
X137607380Y-147821428D01*
X137559761Y-148011904D01*
X137512142Y-148107142D01*
X137464523Y-148154761D01*
X137369285Y-148202380D01*
X137274047Y-148202380D01*
X137178809Y-148154761D01*
X137131190Y-148107142D01*
X137083571Y-148011904D01*
X137035952Y-147821428D01*
X137035952Y-147583333D01*
X137083571Y-147392857D01*
X137131190Y-147297619D01*
X137178809Y-147250000D01*
X137274047Y-147202380D01*
X137988333Y-147297619D02*
X138035952Y-147250000D01*
X138131190Y-147202380D01*
X138369285Y-147202380D01*
X138464523Y-147250000D01*
X138512142Y-147297619D01*
X138559761Y-147392857D01*
X138559761Y-147488095D01*
X138512142Y-147630952D01*
X137940714Y-148202380D01*
X138559761Y-148202380D01*
X138940714Y-148154761D02*
X139083571Y-148202380D01*
X139321666Y-148202380D01*
X139416904Y-148154761D01*
X139464523Y-148107142D01*
X139512142Y-148011904D01*
X139512142Y-147916666D01*
X139464523Y-147821428D01*
X139416904Y-147773809D01*
X139321666Y-147726190D01*
X139131190Y-147678571D01*
X139035952Y-147630952D01*
X138988333Y-147583333D01*
X138940714Y-147488095D01*
X138940714Y-147392857D01*
X138988333Y-147297619D01*
X139035952Y-147250000D01*
X139131190Y-147202380D01*
X139369285Y-147202380D01*
X139512142Y-147250000D01*
X139845476Y-148202380D02*
X140369285Y-147535714D01*
X139845476Y-147535714D02*
X140369285Y-148202380D01*
X140750238Y-148202380D02*
X140750238Y-147202380D01*
X141131190Y-147202380D01*
X141226428Y-147250000D01*
X141274047Y-147297619D01*
X141321666Y-147392857D01*
X141321666Y-147535714D01*
X141274047Y-147630952D01*
X141226428Y-147678571D01*
X141131190Y-147726190D01*
X140750238Y-147726190D01*
X137221933Y-94210142D02*
X137174314Y-94257761D01*
X137031457Y-94305380D01*
X136936219Y-94305380D01*
X136793361Y-94257761D01*
X136698123Y-94162523D01*
X136650504Y-94067285D01*
X136602885Y-93876809D01*
X136602885Y-93733952D01*
X136650504Y-93543476D01*
X136698123Y-93448238D01*
X136793361Y-93353000D01*
X136936219Y-93305380D01*
X137031457Y-93305380D01*
X137174314Y-93353000D01*
X137221933Y-93400619D01*
X138174314Y-94305380D02*
X137602885Y-94305380D01*
X137888600Y-94305380D02*
X137888600Y-93305380D01*
X137793361Y-93448238D01*
X137698123Y-93543476D01*
X137602885Y-93591095D01*
X68021295Y-77069780D02*
X68021295Y-77879304D01*
X68068914Y-77974542D01*
X68116533Y-78022161D01*
X68211771Y-78069780D01*
X68402247Y-78069780D01*
X68497485Y-78022161D01*
X68545104Y-77974542D01*
X68592723Y-77879304D01*
X68592723Y-77069780D01*
X69497485Y-77403114D02*
X69497485Y-78069780D01*
X69259390Y-77022161D02*
X69021295Y-77736447D01*
X69640342Y-77736447D01*
X64521295Y-126775780D02*
X64759390Y-127775780D01*
X64949866Y-127061495D01*
X65140342Y-127775780D01*
X65378438Y-126775780D01*
X66187961Y-126775780D02*
X65997485Y-126775780D01*
X65902247Y-126823400D01*
X65854628Y-126871019D01*
X65759390Y-127013876D01*
X65711771Y-127204352D01*
X65711771Y-127585304D01*
X65759390Y-127680542D01*
X65807009Y-127728161D01*
X65902247Y-127775780D01*
X66092723Y-127775780D01*
X66187961Y-127728161D01*
X66235580Y-127680542D01*
X66283200Y-127585304D01*
X66283200Y-127347209D01*
X66235580Y-127251971D01*
X66187961Y-127204352D01*
X66092723Y-127156733D01*
X65902247Y-127156733D01*
X65807009Y-127204352D01*
X65759390Y-127251971D01*
X65711771Y-127347209D01*
X67187961Y-126775780D02*
X66711771Y-126775780D01*
X66664152Y-127251971D01*
X66711771Y-127204352D01*
X66807009Y-127156733D01*
X67045104Y-127156733D01*
X67140342Y-127204352D01*
X67187961Y-127251971D01*
X67235580Y-127347209D01*
X67235580Y-127585304D01*
X67187961Y-127680542D01*
X67140342Y-127728161D01*
X67045104Y-127775780D01*
X66807009Y-127775780D01*
X66711771Y-127728161D01*
X66664152Y-127680542D01*
X68235580Y-127680542D02*
X68187961Y-127728161D01*
X68045104Y-127775780D01*
X67949866Y-127775780D01*
X67807009Y-127728161D01*
X67711771Y-127632923D01*
X67664152Y-127537685D01*
X67616533Y-127347209D01*
X67616533Y-127204352D01*
X67664152Y-127013876D01*
X67711771Y-126918638D01*
X67807009Y-126823400D01*
X67949866Y-126775780D01*
X68045104Y-126775780D01*
X68187961Y-126823400D01*
X68235580Y-126871019D01*
X68616533Y-126871019D02*
X68664152Y-126823400D01*
X68759390Y-126775780D01*
X68997485Y-126775780D01*
X69092723Y-126823400D01*
X69140342Y-126871019D01*
X69187961Y-126966257D01*
X69187961Y-127061495D01*
X69140342Y-127204352D01*
X68568914Y-127775780D01*
X69187961Y-127775780D01*
X69568914Y-126871019D02*
X69616533Y-126823400D01*
X69711771Y-126775780D01*
X69949866Y-126775780D01*
X70045104Y-126823400D01*
X70092723Y-126871019D01*
X70140342Y-126966257D01*
X70140342Y-127061495D01*
X70092723Y-127204352D01*
X69521295Y-127775780D01*
X70140342Y-127775780D01*
X70568914Y-127775780D02*
X70568914Y-126775780D01*
X71140342Y-127775780D01*
X71140342Y-126775780D01*
X71521295Y-127775780D02*
X72045104Y-127109114D01*
X71521295Y-127109114D02*
X72045104Y-127775780D01*
X72426057Y-127775780D02*
X72426057Y-126775780D01*
X72807009Y-126775780D01*
X72902247Y-126823400D01*
X72949866Y-126871019D01*
X72997485Y-126966257D01*
X72997485Y-127109114D01*
X72949866Y-127204352D01*
X72902247Y-127251971D01*
X72807009Y-127299590D01*
X72426057Y-127299590D01*
X138586666Y-55414761D02*
X138729523Y-55462380D01*
X138967619Y-55462380D01*
X139062857Y-55414761D01*
X139110476Y-55367142D01*
X139158095Y-55271904D01*
X139158095Y-55176666D01*
X139110476Y-55081428D01*
X139062857Y-55033809D01*
X138967619Y-54986190D01*
X138777142Y-54938571D01*
X138681904Y-54890952D01*
X138634285Y-54843333D01*
X138586666Y-54748095D01*
X138586666Y-54652857D01*
X138634285Y-54557619D01*
X138681904Y-54510000D01*
X138777142Y-54462380D01*
X139015238Y-54462380D01*
X139158095Y-54510000D01*
X139491428Y-54462380D02*
X139729523Y-55462380D01*
X139920000Y-54748095D01*
X140110476Y-55462380D01*
X140348571Y-54462380D01*
X140681904Y-54557619D02*
X140729523Y-54510000D01*
X140824761Y-54462380D01*
X141062857Y-54462380D01*
X141158095Y-54510000D01*
X141205714Y-54557619D01*
X141253333Y-54652857D01*
X141253333Y-54748095D01*
X141205714Y-54890952D01*
X140634285Y-55462380D01*
X141253333Y-55462380D01*
X90003333Y-109678742D02*
X89955714Y-109726361D01*
X89812857Y-109773980D01*
X89717619Y-109773980D01*
X89574761Y-109726361D01*
X89479523Y-109631123D01*
X89431904Y-109535885D01*
X89384285Y-109345409D01*
X89384285Y-109202552D01*
X89431904Y-109012076D01*
X89479523Y-108916838D01*
X89574761Y-108821600D01*
X89717619Y-108773980D01*
X89812857Y-108773980D01*
X89955714Y-108821600D01*
X90003333Y-108869219D01*
X90336666Y-108773980D02*
X90955714Y-108773980D01*
X90622380Y-109154933D01*
X90765238Y-109154933D01*
X90860476Y-109202552D01*
X90908095Y-109250171D01*
X90955714Y-109345409D01*
X90955714Y-109583504D01*
X90908095Y-109678742D01*
X90860476Y-109726361D01*
X90765238Y-109773980D01*
X90479523Y-109773980D01*
X90384285Y-109726361D01*
X90336666Y-109678742D01*
X63030000Y-67639285D02*
X63030000Y-68175000D01*
X62994285Y-68282142D01*
X62922857Y-68353571D01*
X62815714Y-68389285D01*
X62744285Y-68389285D01*
X63708571Y-67639285D02*
X63565714Y-67639285D01*
X63494285Y-67675000D01*
X63458571Y-67710714D01*
X63387142Y-67817857D01*
X63351428Y-67960714D01*
X63351428Y-68246428D01*
X63387142Y-68317857D01*
X63422857Y-68353571D01*
X63494285Y-68389285D01*
X63637142Y-68389285D01*
X63708571Y-68353571D01*
X63744285Y-68317857D01*
X63780000Y-68246428D01*
X63780000Y-68067857D01*
X63744285Y-67996428D01*
X63708571Y-67960714D01*
X63637142Y-67925000D01*
X63494285Y-67925000D01*
X63422857Y-67960714D01*
X63387142Y-67996428D01*
X63351428Y-68067857D01*
X129659142Y-76303142D02*
X129611523Y-76350761D01*
X129468666Y-76398380D01*
X129373428Y-76398380D01*
X129230571Y-76350761D01*
X129135333Y-76255523D01*
X129087714Y-76160285D01*
X129040095Y-75969809D01*
X129040095Y-75826952D01*
X129087714Y-75636476D01*
X129135333Y-75541238D01*
X129230571Y-75446000D01*
X129373428Y-75398380D01*
X129468666Y-75398380D01*
X129611523Y-75446000D01*
X129659142Y-75493619D01*
X130611523Y-76398380D02*
X130040095Y-76398380D01*
X130325809Y-76398380D02*
X130325809Y-75398380D01*
X130230571Y-75541238D01*
X130135333Y-75636476D01*
X130040095Y-75684095D01*
X131230571Y-75398380D02*
X131325809Y-75398380D01*
X131421047Y-75446000D01*
X131468666Y-75493619D01*
X131516285Y-75588857D01*
X131563904Y-75779333D01*
X131563904Y-76017428D01*
X131516285Y-76207904D01*
X131468666Y-76303142D01*
X131421047Y-76350761D01*
X131325809Y-76398380D01*
X131230571Y-76398380D01*
X131135333Y-76350761D01*
X131087714Y-76303142D01*
X131040095Y-76207904D01*
X130992476Y-76017428D01*
X130992476Y-75779333D01*
X131040095Y-75588857D01*
X131087714Y-75493619D01*
X131135333Y-75446000D01*
X131230571Y-75398380D01*
X128897238Y-74874380D02*
X128325809Y-74874380D01*
X128611523Y-74874380D02*
X128611523Y-73874380D01*
X128516285Y-74017238D01*
X128421047Y-74112476D01*
X128325809Y-74160095D01*
X129516285Y-73874380D02*
X129611523Y-73874380D01*
X129706761Y-73922000D01*
X129754380Y-73969619D01*
X129802000Y-74064857D01*
X129849619Y-74255333D01*
X129849619Y-74493428D01*
X129802000Y-74683904D01*
X129754380Y-74779142D01*
X129706761Y-74826761D01*
X129611523Y-74874380D01*
X129516285Y-74874380D01*
X129421047Y-74826761D01*
X129373428Y-74779142D01*
X129325809Y-74683904D01*
X129278190Y-74493428D01*
X129278190Y-74255333D01*
X129325809Y-74064857D01*
X129373428Y-73969619D01*
X129421047Y-73922000D01*
X129516285Y-73874380D01*
X130468666Y-73874380D02*
X130563904Y-73874380D01*
X130659142Y-73922000D01*
X130706761Y-73969619D01*
X130754380Y-74064857D01*
X130802000Y-74255333D01*
X130802000Y-74493428D01*
X130754380Y-74683904D01*
X130706761Y-74779142D01*
X130659142Y-74826761D01*
X130563904Y-74874380D01*
X130468666Y-74874380D01*
X130373428Y-74826761D01*
X130325809Y-74779142D01*
X130278190Y-74683904D01*
X130230571Y-74493428D01*
X130230571Y-74255333D01*
X130278190Y-74064857D01*
X130325809Y-73969619D01*
X130373428Y-73922000D01*
X130468666Y-73874380D01*
X131659142Y-74207714D02*
X131659142Y-74874380D01*
X131230571Y-74207714D02*
X131230571Y-74731523D01*
X131278190Y-74826761D01*
X131373428Y-74874380D01*
X131516285Y-74874380D01*
X131611523Y-74826761D01*
X131659142Y-74779142D01*
X131992476Y-74207714D02*
X132373428Y-74207714D01*
X132135333Y-74874380D02*
X132135333Y-74017238D01*
X132182952Y-73922000D01*
X132278190Y-73874380D01*
X132373428Y-73874380D01*
X134351733Y-61469542D02*
X134304114Y-61517161D01*
X134161257Y-61564780D01*
X134066019Y-61564780D01*
X133923161Y-61517161D01*
X133827923Y-61421923D01*
X133780304Y-61326685D01*
X133732685Y-61136209D01*
X133732685Y-60993352D01*
X133780304Y-60802876D01*
X133827923Y-60707638D01*
X133923161Y-60612400D01*
X134066019Y-60564780D01*
X134161257Y-60564780D01*
X134304114Y-60612400D01*
X134351733Y-60660019D01*
X134685066Y-60564780D02*
X135351733Y-60564780D01*
X134923161Y-61564780D01*
X137922095Y-71921380D02*
X137922095Y-72730904D01*
X137969714Y-72826142D01*
X138017333Y-72873761D01*
X138112571Y-72921380D01*
X138303047Y-72921380D01*
X138398285Y-72873761D01*
X138445904Y-72826142D01*
X138493523Y-72730904D01*
X138493523Y-71921380D01*
X139112571Y-72349952D02*
X139017333Y-72302333D01*
X138969714Y-72254714D01*
X138922095Y-72159476D01*
X138922095Y-72111857D01*
X138969714Y-72016619D01*
X139017333Y-71969000D01*
X139112571Y-71921380D01*
X139303047Y-71921380D01*
X139398285Y-71969000D01*
X139445904Y-72016619D01*
X139493523Y-72111857D01*
X139493523Y-72159476D01*
X139445904Y-72254714D01*
X139398285Y-72302333D01*
X139303047Y-72349952D01*
X139112571Y-72349952D01*
X139017333Y-72397571D01*
X138969714Y-72445190D01*
X138922095Y-72540428D01*
X138922095Y-72730904D01*
X138969714Y-72826142D01*
X139017333Y-72873761D01*
X139112571Y-72921380D01*
X139303047Y-72921380D01*
X139398285Y-72873761D01*
X139445904Y-72826142D01*
X139493523Y-72730904D01*
X139493523Y-72540428D01*
X139445904Y-72445190D01*
X139398285Y-72397571D01*
X139303047Y-72349952D01*
X137673333Y-74372380D02*
X137197142Y-74372380D01*
X137197142Y-73372380D01*
X138006666Y-74372380D02*
X138006666Y-73372380D01*
X138340000Y-74086666D01*
X138673333Y-73372380D01*
X138673333Y-74372380D01*
X139054285Y-73372380D02*
X139720952Y-73372380D01*
X139292380Y-74372380D01*
X140244761Y-73800952D02*
X140149523Y-73753333D01*
X140101904Y-73705714D01*
X140054285Y-73610476D01*
X140054285Y-73562857D01*
X140101904Y-73467619D01*
X140149523Y-73420000D01*
X140244761Y-73372380D01*
X140435238Y-73372380D01*
X140530476Y-73420000D01*
X140578095Y-73467619D01*
X140625714Y-73562857D01*
X140625714Y-73610476D01*
X140578095Y-73705714D01*
X140530476Y-73753333D01*
X140435238Y-73800952D01*
X140244761Y-73800952D01*
X140149523Y-73848571D01*
X140101904Y-73896190D01*
X140054285Y-73991428D01*
X140054285Y-74181904D01*
X140101904Y-74277142D01*
X140149523Y-74324761D01*
X140244761Y-74372380D01*
X140435238Y-74372380D01*
X140530476Y-74324761D01*
X140578095Y-74277142D01*
X140625714Y-74181904D01*
X140625714Y-73991428D01*
X140578095Y-73896190D01*
X140530476Y-73848571D01*
X140435238Y-73800952D01*
X141244761Y-73372380D02*
X141340000Y-73372380D01*
X141435238Y-73420000D01*
X141482857Y-73467619D01*
X141530476Y-73562857D01*
X141578095Y-73753333D01*
X141578095Y-73991428D01*
X141530476Y-74181904D01*
X141482857Y-74277142D01*
X141435238Y-74324761D01*
X141340000Y-74372380D01*
X141244761Y-74372380D01*
X141149523Y-74324761D01*
X141101904Y-74277142D01*
X141054285Y-74181904D01*
X141006666Y-73991428D01*
X141006666Y-73753333D01*
X141054285Y-73562857D01*
X141101904Y-73467619D01*
X141149523Y-73420000D01*
X141244761Y-73372380D01*
X142482857Y-73372380D02*
X142006666Y-73372380D01*
X141959047Y-73848571D01*
X142006666Y-73800952D01*
X142101904Y-73753333D01*
X142340000Y-73753333D01*
X142435238Y-73800952D01*
X142482857Y-73848571D01*
X142530476Y-73943809D01*
X142530476Y-74181904D01*
X142482857Y-74277142D01*
X142435238Y-74324761D01*
X142340000Y-74372380D01*
X142101904Y-74372380D01*
X142006666Y-74324761D01*
X141959047Y-74277142D01*
D13*
X122535904Y-62893533D02*
X122154952Y-63160200D01*
X122535904Y-63350676D02*
X121735904Y-63350676D01*
X121735904Y-63045914D01*
X121774000Y-62969723D01*
X121812095Y-62931628D01*
X121888285Y-62893533D01*
X122002571Y-62893533D01*
X122078761Y-62931628D01*
X122116857Y-62969723D01*
X122154952Y-63045914D01*
X122154952Y-63350676D01*
X122535904Y-62131628D02*
X122535904Y-62588771D01*
X122535904Y-62360200D02*
X121735904Y-62360200D01*
X121850190Y-62436390D01*
X121926380Y-62512580D01*
X121964476Y-62588771D01*
D11*
X107829180Y-85455504D02*
X108638704Y-85455504D01*
X108733942Y-85407885D01*
X108781561Y-85360266D01*
X108829180Y-85265028D01*
X108829180Y-85074552D01*
X108781561Y-84979314D01*
X108733942Y-84931695D01*
X108638704Y-84884076D01*
X107829180Y-84884076D01*
X107829180Y-83979314D02*
X107829180Y-84169790D01*
X107876800Y-84265028D01*
X107924419Y-84312647D01*
X108067276Y-84407885D01*
X108257752Y-84455504D01*
X108638704Y-84455504D01*
X108733942Y-84407885D01*
X108781561Y-84360266D01*
X108829180Y-84265028D01*
X108829180Y-84074552D01*
X108781561Y-83979314D01*
X108733942Y-83931695D01*
X108638704Y-83884076D01*
X108400609Y-83884076D01*
X108305371Y-83931695D01*
X108257752Y-83979314D01*
X108210133Y-84074552D01*
X108210133Y-84265028D01*
X108257752Y-84360266D01*
X108305371Y-84407885D01*
X108400609Y-84455504D01*
X116362228Y-84447600D02*
X116266990Y-84399980D01*
X116124133Y-84399980D01*
X115981276Y-84447600D01*
X115886038Y-84542838D01*
X115838419Y-84638076D01*
X115790800Y-84828552D01*
X115790800Y-84971409D01*
X115838419Y-85161885D01*
X115886038Y-85257123D01*
X115981276Y-85352361D01*
X116124133Y-85399980D01*
X116219371Y-85399980D01*
X116362228Y-85352361D01*
X116409847Y-85304742D01*
X116409847Y-84971409D01*
X116219371Y-84971409D01*
X116790800Y-85114266D02*
X117266990Y-85114266D01*
X116695561Y-85399980D02*
X117028895Y-84399980D01*
X117362228Y-85399980D01*
X118171752Y-85399980D02*
X117695561Y-85399980D01*
X117695561Y-84399980D01*
X119028895Y-85399980D02*
X118457466Y-85399980D01*
X118743180Y-85399980D02*
X118743180Y-84399980D01*
X118647942Y-84542838D01*
X118552704Y-84638076D01*
X118457466Y-84685695D01*
X119886038Y-84399980D02*
X119695561Y-84399980D01*
X119600323Y-84447600D01*
X119552704Y-84495219D01*
X119457466Y-84638076D01*
X119409847Y-84828552D01*
X119409847Y-85209504D01*
X119457466Y-85304742D01*
X119505085Y-85352361D01*
X119600323Y-85399980D01*
X119790800Y-85399980D01*
X119886038Y-85352361D01*
X119933657Y-85304742D01*
X119981276Y-85209504D01*
X119981276Y-84971409D01*
X119933657Y-84876171D01*
X119886038Y-84828552D01*
X119790800Y-84780933D01*
X119600323Y-84780933D01*
X119505085Y-84828552D01*
X119457466Y-84876171D01*
X119409847Y-84971409D01*
X120266990Y-84399980D02*
X120600323Y-85399980D01*
X120933657Y-84399980D01*
X121409847Y-84828552D02*
X121314609Y-84780933D01*
X121266990Y-84733314D01*
X121219371Y-84638076D01*
X121219371Y-84590457D01*
X121266990Y-84495219D01*
X121314609Y-84447600D01*
X121409847Y-84399980D01*
X121600323Y-84399980D01*
X121695561Y-84447600D01*
X121743180Y-84495219D01*
X121790800Y-84590457D01*
X121790800Y-84638076D01*
X121743180Y-84733314D01*
X121695561Y-84780933D01*
X121600323Y-84828552D01*
X121409847Y-84828552D01*
X121314609Y-84876171D01*
X121266990Y-84923790D01*
X121219371Y-85019028D01*
X121219371Y-85209504D01*
X121266990Y-85304742D01*
X121314609Y-85352361D01*
X121409847Y-85399980D01*
X121600323Y-85399980D01*
X121695561Y-85352361D01*
X121743180Y-85304742D01*
X121790800Y-85209504D01*
X121790800Y-85019028D01*
X121743180Y-84923790D01*
X121695561Y-84876171D01*
X121600323Y-84828552D01*
X62856866Y-53058180D02*
X62856866Y-53772466D01*
X62809247Y-53915323D01*
X62714009Y-54010561D01*
X62571152Y-54058180D01*
X62475914Y-54058180D01*
X63237819Y-53058180D02*
X63856866Y-53058180D01*
X63523533Y-53439133D01*
X63666390Y-53439133D01*
X63761628Y-53486752D01*
X63809247Y-53534371D01*
X63856866Y-53629609D01*
X63856866Y-53867704D01*
X63809247Y-53962942D01*
X63761628Y-54010561D01*
X63666390Y-54058180D01*
X63380676Y-54058180D01*
X63285438Y-54010561D01*
X63237819Y-53962942D01*
X112837933Y-93829142D02*
X112790314Y-93876761D01*
X112647457Y-93924380D01*
X112552219Y-93924380D01*
X112409361Y-93876761D01*
X112314123Y-93781523D01*
X112266504Y-93686285D01*
X112218885Y-93495809D01*
X112218885Y-93352952D01*
X112266504Y-93162476D01*
X112314123Y-93067238D01*
X112409361Y-92972000D01*
X112552219Y-92924380D01*
X112647457Y-92924380D01*
X112790314Y-92972000D01*
X112837933Y-93019619D01*
X113218885Y-93019619D02*
X113266504Y-92972000D01*
X113361742Y-92924380D01*
X113599838Y-92924380D01*
X113695076Y-92972000D01*
X113742695Y-93019619D01*
X113790314Y-93114857D01*
X113790314Y-93210095D01*
X113742695Y-93352952D01*
X113171266Y-93924380D01*
X113790314Y-93924380D01*
X122728266Y-55900161D02*
X122871123Y-55947780D01*
X123109219Y-55947780D01*
X123204457Y-55900161D01*
X123252076Y-55852542D01*
X123299695Y-55757304D01*
X123299695Y-55662066D01*
X123252076Y-55566828D01*
X123204457Y-55519209D01*
X123109219Y-55471590D01*
X122918742Y-55423971D01*
X122823504Y-55376352D01*
X122775885Y-55328733D01*
X122728266Y-55233495D01*
X122728266Y-55138257D01*
X122775885Y-55043019D01*
X122823504Y-54995400D01*
X122918742Y-54947780D01*
X123156838Y-54947780D01*
X123299695Y-54995400D01*
X123633028Y-54947780D02*
X123871123Y-55947780D01*
X124061600Y-55233495D01*
X124252076Y-55947780D01*
X124490171Y-54947780D01*
X125394933Y-55947780D02*
X124823504Y-55947780D01*
X125109219Y-55947780D02*
X125109219Y-54947780D01*
X125013980Y-55090638D01*
X124918742Y-55185876D01*
X124823504Y-55233495D01*
X118602380Y-56348095D02*
X118126190Y-56681428D01*
X118602380Y-56919523D02*
X117602380Y-56919523D01*
X117602380Y-56538571D01*
X117650000Y-56443333D01*
X117697619Y-56395714D01*
X117792857Y-56348095D01*
X117935714Y-56348095D01*
X118030952Y-56395714D01*
X118078571Y-56443333D01*
X118126190Y-56538571D01*
X118126190Y-56919523D01*
X118554761Y-55538571D02*
X118602380Y-55633809D01*
X118602380Y-55824285D01*
X118554761Y-55919523D01*
X118459523Y-55967142D01*
X118078571Y-55967142D01*
X117983333Y-55919523D01*
X117935714Y-55824285D01*
X117935714Y-55633809D01*
X117983333Y-55538571D01*
X118078571Y-55490952D01*
X118173809Y-55490952D01*
X118269047Y-55967142D01*
X118554761Y-55110000D02*
X118602380Y-55014761D01*
X118602380Y-54824285D01*
X118554761Y-54729047D01*
X118459523Y-54681428D01*
X118411904Y-54681428D01*
X118316666Y-54729047D01*
X118269047Y-54824285D01*
X118269047Y-54967142D01*
X118221428Y-55062380D01*
X118126190Y-55110000D01*
X118078571Y-55110000D01*
X117983333Y-55062380D01*
X117935714Y-54967142D01*
X117935714Y-54824285D01*
X117983333Y-54729047D01*
X118554761Y-53871904D02*
X118602380Y-53967142D01*
X118602380Y-54157619D01*
X118554761Y-54252857D01*
X118459523Y-54300476D01*
X118078571Y-54300476D01*
X117983333Y-54252857D01*
X117935714Y-54157619D01*
X117935714Y-53967142D01*
X117983333Y-53871904D01*
X118078571Y-53824285D01*
X118173809Y-53824285D01*
X118269047Y-54300476D01*
X117935714Y-53538571D02*
X117935714Y-53157619D01*
X117602380Y-53395714D02*
X118459523Y-53395714D01*
X118554761Y-53348095D01*
X118602380Y-53252857D01*
X118602380Y-53157619D01*
X76236904Y-129127380D02*
X76236904Y-128127380D01*
X76475000Y-128127380D01*
X76617857Y-128175000D01*
X76713095Y-128270238D01*
X76760714Y-128365476D01*
X76808333Y-128555952D01*
X76808333Y-128698809D01*
X76760714Y-128889285D01*
X76713095Y-128984523D01*
X76617857Y-129079761D01*
X76475000Y-129127380D01*
X76236904Y-129127380D01*
X77189285Y-128222619D02*
X77236904Y-128175000D01*
X77332142Y-128127380D01*
X77570238Y-128127380D01*
X77665476Y-128175000D01*
X77713095Y-128222619D01*
X77760714Y-128317857D01*
X77760714Y-128413095D01*
X77713095Y-128555952D01*
X77141666Y-129127380D01*
X77760714Y-129127380D01*
X127856733Y-67590942D02*
X127809114Y-67638561D01*
X127666257Y-67686180D01*
X127571019Y-67686180D01*
X127428161Y-67638561D01*
X127332923Y-67543323D01*
X127285304Y-67448085D01*
X127237685Y-67257609D01*
X127237685Y-67114752D01*
X127285304Y-66924276D01*
X127332923Y-66829038D01*
X127428161Y-66733800D01*
X127571019Y-66686180D01*
X127666257Y-66686180D01*
X127809114Y-66733800D01*
X127856733Y-66781419D01*
X128332923Y-67686180D02*
X128523400Y-67686180D01*
X128618638Y-67638561D01*
X128666257Y-67590942D01*
X128761495Y-67448085D01*
X128809114Y-67257609D01*
X128809114Y-66876657D01*
X128761495Y-66781419D01*
X128713876Y-66733800D01*
X128618638Y-66686180D01*
X128428161Y-66686180D01*
X128332923Y-66733800D01*
X128285304Y-66781419D01*
X128237685Y-66876657D01*
X128237685Y-67114752D01*
X128285304Y-67209990D01*
X128332923Y-67257609D01*
X128428161Y-67305228D01*
X128618638Y-67305228D01*
X128713876Y-67257609D01*
X128761495Y-67209990D01*
X128809114Y-67114752D01*
X129727028Y-61972380D02*
X129155600Y-61972380D01*
X129441314Y-61972380D02*
X129441314Y-60972380D01*
X129346076Y-61115238D01*
X129250838Y-61210476D01*
X129155600Y-61258095D01*
X130346076Y-60972380D02*
X130441314Y-60972380D01*
X130536552Y-61020000D01*
X130584171Y-61067619D01*
X130631790Y-61162857D01*
X130679409Y-61353333D01*
X130679409Y-61591428D01*
X130631790Y-61781904D01*
X130584171Y-61877142D01*
X130536552Y-61924761D01*
X130441314Y-61972380D01*
X130346076Y-61972380D01*
X130250838Y-61924761D01*
X130203219Y-61877142D01*
X130155600Y-61781904D01*
X130107980Y-61591428D01*
X130107980Y-61353333D01*
X130155600Y-61162857D01*
X130203219Y-61067619D01*
X130250838Y-61020000D01*
X130346076Y-60972380D01*
X131536552Y-61305714D02*
X131536552Y-61972380D01*
X131107980Y-61305714D02*
X131107980Y-61829523D01*
X131155600Y-61924761D01*
X131250838Y-61972380D01*
X131393695Y-61972380D01*
X131488933Y-61924761D01*
X131536552Y-61877142D01*
X131869885Y-61305714D02*
X132250838Y-61305714D01*
X132012742Y-61972380D02*
X132012742Y-61115238D01*
X132060361Y-61020000D01*
X132155600Y-60972380D01*
X132250838Y-60972380D01*
X118014142Y-63974485D02*
X118061761Y-63926866D01*
X118109380Y-63974485D01*
X118061761Y-64022104D01*
X118014142Y-63974485D01*
X118109380Y-63974485D01*
X118109380Y-62974485D02*
X118109380Y-63545914D01*
X118109380Y-63260200D02*
X117109380Y-63260200D01*
X117252238Y-63355438D01*
X117347476Y-63450676D01*
X117395095Y-63545914D01*
X117442714Y-62117342D02*
X118109380Y-62117342D01*
X117442714Y-62545914D02*
X117966523Y-62545914D01*
X118061761Y-62498295D01*
X118109380Y-62403057D01*
X118109380Y-62260200D01*
X118061761Y-62164961D01*
X118014142Y-62117342D01*
X117442714Y-61784009D02*
X117442714Y-61403057D01*
X118109380Y-61641152D02*
X117252238Y-61641152D01*
X117157000Y-61593533D01*
X117109380Y-61498295D01*
X117109380Y-61403057D01*
D13*
X119792714Y-63274485D02*
X119830809Y-63312580D01*
X119868904Y-63426866D01*
X119868904Y-63503057D01*
X119830809Y-63617342D01*
X119754619Y-63693533D01*
X119678428Y-63731628D01*
X119526047Y-63769723D01*
X119411761Y-63769723D01*
X119259380Y-63731628D01*
X119183190Y-63693533D01*
X119107000Y-63617342D01*
X119068904Y-63503057D01*
X119068904Y-63426866D01*
X119107000Y-63312580D01*
X119145095Y-63274485D01*
X119868904Y-62512580D02*
X119868904Y-62969723D01*
X119868904Y-62741152D02*
X119068904Y-62741152D01*
X119183190Y-62817342D01*
X119259380Y-62893533D01*
X119297476Y-62969723D01*
X119868904Y-61750676D02*
X119868904Y-62207819D01*
X119868904Y-61979247D02*
X119068904Y-61979247D01*
X119183190Y-62055438D01*
X119259380Y-62131628D01*
X119297476Y-62207819D01*
D11*
X104776542Y-84899266D02*
X104824161Y-84946885D01*
X104871780Y-85089742D01*
X104871780Y-85184980D01*
X104824161Y-85327838D01*
X104728923Y-85423076D01*
X104633685Y-85470695D01*
X104443209Y-85518314D01*
X104300352Y-85518314D01*
X104109876Y-85470695D01*
X104014638Y-85423076D01*
X103919400Y-85327838D01*
X103871780Y-85184980D01*
X103871780Y-85089742D01*
X103919400Y-84946885D01*
X103967019Y-84899266D01*
X103871780Y-84042123D02*
X103871780Y-84232600D01*
X103919400Y-84327838D01*
X103967019Y-84375457D01*
X104109876Y-84470695D01*
X104300352Y-84518314D01*
X104681304Y-84518314D01*
X104776542Y-84470695D01*
X104824161Y-84423076D01*
X104871780Y-84327838D01*
X104871780Y-84137361D01*
X104824161Y-84042123D01*
X104776542Y-83994504D01*
X104681304Y-83946885D01*
X104443209Y-83946885D01*
X104347971Y-83994504D01*
X104300352Y-84042123D01*
X104252733Y-84137361D01*
X104252733Y-84327838D01*
X104300352Y-84423076D01*
X104347971Y-84470695D01*
X104443209Y-84518314D01*
X112217295Y-96632780D02*
X112217295Y-97442304D01*
X112264914Y-97537542D01*
X112312533Y-97585161D01*
X112407771Y-97632780D01*
X112598247Y-97632780D01*
X112693485Y-97585161D01*
X112741104Y-97537542D01*
X112788723Y-97442304D01*
X112788723Y-96632780D01*
X113217295Y-96728019D02*
X113264914Y-96680400D01*
X113360152Y-96632780D01*
X113598247Y-96632780D01*
X113693485Y-96680400D01*
X113741104Y-96728019D01*
X113788723Y-96823257D01*
X113788723Y-96918495D01*
X113741104Y-97061352D01*
X113169676Y-97632780D01*
X113788723Y-97632780D01*
X109631600Y-147867666D02*
X110107790Y-147867666D01*
X109536361Y-148153380D02*
X109869695Y-147153380D01*
X110203028Y-148153380D01*
X110393504Y-147153380D02*
X110964933Y-147153380D01*
X110679219Y-148153380D02*
X110679219Y-147153380D01*
X111250647Y-147248619D02*
X111298266Y-147201000D01*
X111393504Y-147153380D01*
X111631600Y-147153380D01*
X111726838Y-147201000D01*
X111774457Y-147248619D01*
X111822076Y-147343857D01*
X111822076Y-147439095D01*
X111774457Y-147581952D01*
X111203028Y-148153380D01*
X111822076Y-148153380D01*
X112393504Y-147581952D02*
X112298266Y-147534333D01*
X112250647Y-147486714D01*
X112203028Y-147391476D01*
X112203028Y-147343857D01*
X112250647Y-147248619D01*
X112298266Y-147201000D01*
X112393504Y-147153380D01*
X112583980Y-147153380D01*
X112679219Y-147201000D01*
X112726838Y-147248619D01*
X112774457Y-147343857D01*
X112774457Y-147391476D01*
X112726838Y-147486714D01*
X112679219Y-147534333D01*
X112583980Y-147581952D01*
X112393504Y-147581952D01*
X112298266Y-147629571D01*
X112250647Y-147677190D01*
X112203028Y-147772428D01*
X112203028Y-147962904D01*
X112250647Y-148058142D01*
X112298266Y-148105761D01*
X112393504Y-148153380D01*
X112583980Y-148153380D01*
X112679219Y-148105761D01*
X112726838Y-148058142D01*
X112774457Y-147962904D01*
X112774457Y-147772428D01*
X112726838Y-147677190D01*
X112679219Y-147629571D01*
X112583980Y-147581952D01*
X113774457Y-148058142D02*
X113726838Y-148105761D01*
X113583980Y-148153380D01*
X113488742Y-148153380D01*
X113345885Y-148105761D01*
X113250647Y-148010523D01*
X113203028Y-147915285D01*
X113155409Y-147724809D01*
X113155409Y-147581952D01*
X113203028Y-147391476D01*
X113250647Y-147296238D01*
X113345885Y-147201000D01*
X113488742Y-147153380D01*
X113583980Y-147153380D01*
X113726838Y-147201000D01*
X113774457Y-147248619D01*
X114155409Y-147248619D02*
X114203028Y-147201000D01*
X114298266Y-147153380D01*
X114536361Y-147153380D01*
X114631600Y-147201000D01*
X114679219Y-147248619D01*
X114726838Y-147343857D01*
X114726838Y-147439095D01*
X114679219Y-147581952D01*
X114107790Y-148153380D01*
X114726838Y-148153380D01*
X115631600Y-147153380D02*
X115155409Y-147153380D01*
X115107790Y-147629571D01*
X115155409Y-147581952D01*
X115250647Y-147534333D01*
X115488742Y-147534333D01*
X115583980Y-147581952D01*
X115631600Y-147629571D01*
X115679219Y-147724809D01*
X115679219Y-147962904D01*
X115631600Y-148058142D01*
X115583980Y-148105761D01*
X115488742Y-148153380D01*
X115250647Y-148153380D01*
X115155409Y-148105761D01*
X115107790Y-148058142D01*
X116536361Y-147153380D02*
X116345885Y-147153380D01*
X116250647Y-147201000D01*
X116203028Y-147248619D01*
X116107790Y-147391476D01*
X116060171Y-147581952D01*
X116060171Y-147962904D01*
X116107790Y-148058142D01*
X116155409Y-148105761D01*
X116250647Y-148153380D01*
X116441123Y-148153380D01*
X116536361Y-148105761D01*
X116583980Y-148058142D01*
X116631600Y-147962904D01*
X116631600Y-147724809D01*
X116583980Y-147629571D01*
X116536361Y-147581952D01*
X116441123Y-147534333D01*
X116250647Y-147534333D01*
X116155409Y-147581952D01*
X116107790Y-147629571D01*
X116060171Y-147724809D01*
X89953333Y-72007142D02*
X89905714Y-72054761D01*
X89762857Y-72102380D01*
X89667619Y-72102380D01*
X89524761Y-72054761D01*
X89429523Y-71959523D01*
X89381904Y-71864285D01*
X89334285Y-71673809D01*
X89334285Y-71530952D01*
X89381904Y-71340476D01*
X89429523Y-71245238D01*
X89524761Y-71150000D01*
X89667619Y-71102380D01*
X89762857Y-71102380D01*
X89905714Y-71150000D01*
X89953333Y-71197619D01*
X90858095Y-71102380D02*
X90381904Y-71102380D01*
X90334285Y-71578571D01*
X90381904Y-71530952D01*
X90477142Y-71483333D01*
X90715238Y-71483333D01*
X90810476Y-71530952D01*
X90858095Y-71578571D01*
X90905714Y-71673809D01*
X90905714Y-71911904D01*
X90858095Y-72007142D01*
X90810476Y-72054761D01*
X90715238Y-72102380D01*
X90477142Y-72102380D01*
X90381904Y-72054761D01*
X90334285Y-72007142D01*
X151680666Y-94282380D02*
X151680666Y-94996666D01*
X151633047Y-95139523D01*
X151537809Y-95234761D01*
X151394952Y-95282380D01*
X151299714Y-95282380D01*
X152680666Y-95282380D02*
X152109238Y-95282380D01*
X152394952Y-95282380D02*
X152394952Y-94282380D01*
X152299714Y-94425238D01*
X152204476Y-94520476D01*
X152109238Y-94568095D01*
X127302980Y-63322104D02*
X128112504Y-63322104D01*
X128207742Y-63274485D01*
X128255361Y-63226866D01*
X128302980Y-63131628D01*
X128302980Y-62941152D01*
X128255361Y-62845914D01*
X128207742Y-62798295D01*
X128112504Y-62750676D01*
X127302980Y-62750676D01*
X127302980Y-62369723D02*
X127302980Y-61703057D01*
X128302980Y-62131628D01*
X89331895Y-114234980D02*
X89331895Y-115044504D01*
X89379514Y-115139742D01*
X89427133Y-115187361D01*
X89522371Y-115234980D01*
X89712847Y-115234980D01*
X89808085Y-115187361D01*
X89855704Y-115139742D01*
X89903323Y-115044504D01*
X89903323Y-114234980D01*
X90284276Y-114234980D02*
X90903323Y-114234980D01*
X90569990Y-114615933D01*
X90712847Y-114615933D01*
X90808085Y-114663552D01*
X90855704Y-114711171D01*
X90903323Y-114806409D01*
X90903323Y-115044504D01*
X90855704Y-115139742D01*
X90808085Y-115187361D01*
X90712847Y-115234980D01*
X90427133Y-115234980D01*
X90331895Y-115187361D01*
X90284276Y-115139742D01*
X85527142Y-148273580D02*
X85527142Y-147273580D01*
X85527142Y-147749771D02*
X86098571Y-147749771D01*
X86098571Y-148273580D02*
X86098571Y-147273580D01*
X86574761Y-148273580D02*
X86574761Y-147273580D01*
X86908095Y-147987866D01*
X87241428Y-147273580D01*
X87241428Y-148273580D01*
X88146190Y-147273580D02*
X87955714Y-147273580D01*
X87860476Y-147321200D01*
X87812857Y-147368819D01*
X87717619Y-147511676D01*
X87670000Y-147702152D01*
X87670000Y-148083104D01*
X87717619Y-148178342D01*
X87765238Y-148225961D01*
X87860476Y-148273580D01*
X88050952Y-148273580D01*
X88146190Y-148225961D01*
X88193809Y-148178342D01*
X88241428Y-148083104D01*
X88241428Y-147845009D01*
X88193809Y-147749771D01*
X88146190Y-147702152D01*
X88050952Y-147654533D01*
X87860476Y-147654533D01*
X87765238Y-147702152D01*
X87717619Y-147749771D01*
X87670000Y-147845009D01*
X88622380Y-147368819D02*
X88670000Y-147321200D01*
X88765238Y-147273580D01*
X89003333Y-147273580D01*
X89098571Y-147321200D01*
X89146190Y-147368819D01*
X89193809Y-147464057D01*
X89193809Y-147559295D01*
X89146190Y-147702152D01*
X88574761Y-148273580D01*
X89193809Y-148273580D01*
X89574761Y-147368819D02*
X89622380Y-147321200D01*
X89717619Y-147273580D01*
X89955714Y-147273580D01*
X90050952Y-147321200D01*
X90098571Y-147368819D01*
X90146190Y-147464057D01*
X90146190Y-147559295D01*
X90098571Y-147702152D01*
X89527142Y-148273580D01*
X90146190Y-148273580D01*
X91050952Y-147273580D02*
X90574761Y-147273580D01*
X90527142Y-147749771D01*
X90574761Y-147702152D01*
X90670000Y-147654533D01*
X90908095Y-147654533D01*
X91003333Y-147702152D01*
X91050952Y-147749771D01*
X91098571Y-147845009D01*
X91098571Y-148083104D01*
X91050952Y-148178342D01*
X91003333Y-148225961D01*
X90908095Y-148273580D01*
X90670000Y-148273580D01*
X90574761Y-148225961D01*
X90527142Y-148178342D01*
X91955714Y-147273580D02*
X91765238Y-147273580D01*
X91670000Y-147321200D01*
X91622380Y-147368819D01*
X91527142Y-147511676D01*
X91479523Y-147702152D01*
X91479523Y-148083104D01*
X91527142Y-148178342D01*
X91574761Y-148225961D01*
X91670000Y-148273580D01*
X91860476Y-148273580D01*
X91955714Y-148225961D01*
X92003333Y-148178342D01*
X92050952Y-148083104D01*
X92050952Y-147845009D01*
X92003333Y-147749771D01*
X91955714Y-147702152D01*
X91860476Y-147654533D01*
X91670000Y-147654533D01*
X91574761Y-147702152D01*
X91527142Y-147749771D01*
X91479523Y-147845009D01*
X92812857Y-147749771D02*
X92955714Y-147797390D01*
X93003333Y-147845009D01*
X93050952Y-147940247D01*
X93050952Y-148083104D01*
X93003333Y-148178342D01*
X92955714Y-148225961D01*
X92860476Y-148273580D01*
X92479523Y-148273580D01*
X92479523Y-147273580D01*
X92812857Y-147273580D01*
X92908095Y-147321200D01*
X92955714Y-147368819D01*
X93003333Y-147464057D01*
X93003333Y-147559295D01*
X92955714Y-147654533D01*
X92908095Y-147702152D01*
X92812857Y-147749771D01*
X92479523Y-147749771D01*
X93955714Y-148273580D02*
X93479523Y-148273580D01*
X93479523Y-147273580D01*
X94289047Y-148273580D02*
X94289047Y-147273580D01*
X94670000Y-147273580D01*
X94765238Y-147321200D01*
X94812857Y-147368819D01*
X94860476Y-147464057D01*
X94860476Y-147606914D01*
X94812857Y-147702152D01*
X94765238Y-147749771D01*
X94670000Y-147797390D01*
X94289047Y-147797390D01*
X89331895Y-77430380D02*
X89331895Y-78239904D01*
X89379514Y-78335142D01*
X89427133Y-78382761D01*
X89522371Y-78430380D01*
X89712847Y-78430380D01*
X89808085Y-78382761D01*
X89855704Y-78335142D01*
X89903323Y-78239904D01*
X89903323Y-77430380D01*
X90855704Y-77430380D02*
X90379514Y-77430380D01*
X90331895Y-77906571D01*
X90379514Y-77858952D01*
X90474752Y-77811333D01*
X90712847Y-77811333D01*
X90808085Y-77858952D01*
X90855704Y-77906571D01*
X90903323Y-78001809D01*
X90903323Y-78239904D01*
X90855704Y-78335142D01*
X90808085Y-78382761D01*
X90712847Y-78430380D01*
X90474752Y-78430380D01*
X90379514Y-78382761D01*
X90331895Y-78335142D01*
X86850704Y-107374580D02*
X86850704Y-106374580D01*
X87184038Y-107088866D01*
X87517371Y-106374580D01*
X87517371Y-107374580D01*
X88564990Y-107279342D02*
X88517371Y-107326961D01*
X88374514Y-107374580D01*
X88279276Y-107374580D01*
X88136419Y-107326961D01*
X88041180Y-107231723D01*
X87993561Y-107136485D01*
X87945942Y-106946009D01*
X87945942Y-106803152D01*
X87993561Y-106612676D01*
X88041180Y-106517438D01*
X88136419Y-106422200D01*
X88279276Y-106374580D01*
X88374514Y-106374580D01*
X88517371Y-106422200D01*
X88564990Y-106469819D01*
X89422133Y-106374580D02*
X89231657Y-106374580D01*
X89136419Y-106422200D01*
X89088800Y-106469819D01*
X88993561Y-106612676D01*
X88945942Y-106803152D01*
X88945942Y-107184104D01*
X88993561Y-107279342D01*
X89041180Y-107326961D01*
X89136419Y-107374580D01*
X89326895Y-107374580D01*
X89422133Y-107326961D01*
X89469752Y-107279342D01*
X89517371Y-107184104D01*
X89517371Y-106946009D01*
X89469752Y-106850771D01*
X89422133Y-106803152D01*
X89326895Y-106755533D01*
X89136419Y-106755533D01*
X89041180Y-106803152D01*
X88993561Y-106850771D01*
X88945942Y-106946009D01*
X90088800Y-106803152D02*
X89993561Y-106755533D01*
X89945942Y-106707914D01*
X89898323Y-106612676D01*
X89898323Y-106565057D01*
X89945942Y-106469819D01*
X89993561Y-106422200D01*
X90088800Y-106374580D01*
X90279276Y-106374580D01*
X90374514Y-106422200D01*
X90422133Y-106469819D01*
X90469752Y-106565057D01*
X90469752Y-106612676D01*
X90422133Y-106707914D01*
X90374514Y-106755533D01*
X90279276Y-106803152D01*
X90088800Y-106803152D01*
X89993561Y-106850771D01*
X89945942Y-106898390D01*
X89898323Y-106993628D01*
X89898323Y-107184104D01*
X89945942Y-107279342D01*
X89993561Y-107326961D01*
X90088800Y-107374580D01*
X90279276Y-107374580D01*
X90374514Y-107326961D01*
X90422133Y-107279342D01*
X90469752Y-107184104D01*
X90469752Y-106993628D01*
X90422133Y-106898390D01*
X90374514Y-106850771D01*
X90279276Y-106803152D01*
X91231657Y-106850771D02*
X91374514Y-106898390D01*
X91422133Y-106946009D01*
X91469752Y-107041247D01*
X91469752Y-107184104D01*
X91422133Y-107279342D01*
X91374514Y-107326961D01*
X91279276Y-107374580D01*
X90898323Y-107374580D01*
X90898323Y-106374580D01*
X91231657Y-106374580D01*
X91326895Y-106422200D01*
X91374514Y-106469819D01*
X91422133Y-106565057D01*
X91422133Y-106660295D01*
X91374514Y-106755533D01*
X91326895Y-106803152D01*
X91231657Y-106850771D01*
X90898323Y-106850771D01*
X92374514Y-106374580D02*
X91898323Y-106374580D01*
X91850704Y-106850771D01*
X91898323Y-106803152D01*
X91993561Y-106755533D01*
X92231657Y-106755533D01*
X92326895Y-106803152D01*
X92374514Y-106850771D01*
X92422133Y-106946009D01*
X92422133Y-107184104D01*
X92374514Y-107279342D01*
X92326895Y-107326961D01*
X92231657Y-107374580D01*
X91993561Y-107374580D01*
X91898323Y-107326961D01*
X91850704Y-107279342D01*
X93041180Y-106374580D02*
X93136419Y-106374580D01*
X93231657Y-106422200D01*
X93279276Y-106469819D01*
X93326895Y-106565057D01*
X93374514Y-106755533D01*
X93374514Y-106993628D01*
X93326895Y-107184104D01*
X93279276Y-107279342D01*
X93231657Y-107326961D01*
X93136419Y-107374580D01*
X93041180Y-107374580D01*
X92945942Y-107326961D01*
X92898323Y-107279342D01*
X92850704Y-107184104D01*
X92803085Y-106993628D01*
X92803085Y-106755533D01*
X92850704Y-106565057D01*
X92898323Y-106469819D01*
X92945942Y-106422200D01*
X93041180Y-106374580D01*
X155281380Y-58407133D02*
X155995666Y-58407133D01*
X156138523Y-58454752D01*
X156233761Y-58549990D01*
X156281380Y-58692847D01*
X156281380Y-58788085D01*
X155376619Y-57978561D02*
X155329000Y-57930942D01*
X155281380Y-57835704D01*
X155281380Y-57597609D01*
X155329000Y-57502371D01*
X155376619Y-57454752D01*
X155471857Y-57407133D01*
X155567095Y-57407133D01*
X155709952Y-57454752D01*
X156281380Y-58026180D01*
X156281380Y-57407133D01*
X119205476Y-71512180D02*
X119872142Y-72512180D01*
X119872142Y-71512180D02*
X119205476Y-72512180D01*
X120776904Y-72512180D02*
X120205476Y-72512180D01*
X120491190Y-72512180D02*
X120491190Y-71512180D01*
X120395952Y-71655038D01*
X120300714Y-71750276D01*
X120205476Y-71797895D01*
X62836466Y-130929580D02*
X62836466Y-131643866D01*
X62788847Y-131786723D01*
X62693609Y-131881961D01*
X62550752Y-131929580D01*
X62455514Y-131929580D01*
X63741228Y-131262914D02*
X63741228Y-131929580D01*
X63503133Y-130881961D02*
X63265038Y-131596247D01*
X63884085Y-131596247D01*
X79827380Y-125563095D02*
X78827380Y-125563095D01*
X78827380Y-125325000D01*
X78875000Y-125182142D01*
X78970238Y-125086904D01*
X79065476Y-125039285D01*
X79255952Y-124991666D01*
X79398809Y-124991666D01*
X79589285Y-125039285D01*
X79684523Y-125086904D01*
X79779761Y-125182142D01*
X79827380Y-125325000D01*
X79827380Y-125563095D01*
X79827380Y-124039285D02*
X79827380Y-124610714D01*
X79827380Y-124325000D02*
X78827380Y-124325000D01*
X78970238Y-124420238D01*
X79065476Y-124515476D01*
X79113095Y-124610714D01*
X78618095Y-52952380D02*
X78618095Y-53761904D01*
X78665714Y-53857142D01*
X78713333Y-53904761D01*
X78808571Y-53952380D01*
X78999047Y-53952380D01*
X79094285Y-53904761D01*
X79141904Y-53857142D01*
X79189523Y-53761904D01*
X79189523Y-52952380D01*
X79713333Y-53952380D02*
X79903809Y-53952380D01*
X79999047Y-53904761D01*
X80046666Y-53857142D01*
X80141904Y-53714285D01*
X80189523Y-53523809D01*
X80189523Y-53142857D01*
X80141904Y-53047619D01*
X80094285Y-53000000D01*
X79999047Y-52952380D01*
X79808571Y-52952380D01*
X79713333Y-53000000D01*
X79665714Y-53047619D01*
X79618095Y-53142857D01*
X79618095Y-53380952D01*
X79665714Y-53476190D01*
X79713333Y-53523809D01*
X79808571Y-53571428D01*
X79999047Y-53571428D01*
X80094285Y-53523809D01*
X80141904Y-53476190D01*
X80189523Y-53380952D01*
D14*
X72918828Y-66796514D02*
X72918828Y-67367942D01*
X72633114Y-67082228D02*
X73204542Y-67082228D01*
X73383114Y-68082228D02*
X73383114Y-67725085D01*
X73025971Y-67689371D01*
X73061685Y-67725085D01*
X73097400Y-67796514D01*
X73097400Y-67975085D01*
X73061685Y-68046514D01*
X73025971Y-68082228D01*
X72954542Y-68117942D01*
X72775971Y-68117942D01*
X72704542Y-68082228D01*
X72668828Y-68046514D01*
X72633114Y-67975085D01*
X72633114Y-67796514D01*
X72668828Y-67725085D01*
X72704542Y-67689371D01*
X73383114Y-68332228D02*
X72633114Y-68582228D01*
X73383114Y-68832228D01*
D11*
X82843914Y-66954457D02*
X83593914Y-66954457D01*
X83593914Y-67133028D01*
X83558200Y-67240171D01*
X83486771Y-67311600D01*
X83415342Y-67347314D01*
X83272485Y-67383028D01*
X83165342Y-67383028D01*
X83022485Y-67347314D01*
X82951057Y-67311600D01*
X82879628Y-67240171D01*
X82843914Y-67133028D01*
X82843914Y-66954457D01*
X83593914Y-67597314D02*
X83593914Y-68025885D01*
X82843914Y-67811600D02*
X83593914Y-67811600D01*
X82843914Y-68704457D02*
X83201057Y-68454457D01*
X82843914Y-68275885D02*
X83593914Y-68275885D01*
X83593914Y-68561600D01*
X83558200Y-68633028D01*
X83522485Y-68668742D01*
X83451057Y-68704457D01*
X83343914Y-68704457D01*
X83272485Y-68668742D01*
X83236771Y-68633028D01*
X83201057Y-68561600D01*
X83201057Y-68275885D01*
X78213114Y-66152428D02*
X77998828Y-66723857D01*
X77784542Y-66152428D01*
X78463114Y-66973857D02*
X78463114Y-67402428D01*
X77713114Y-67188142D02*
X78463114Y-67188142D01*
X78463114Y-67581000D02*
X77713114Y-68081000D01*
X78463114Y-68081000D02*
X77713114Y-67581000D01*
X77713114Y-68366714D02*
X78463114Y-68366714D01*
X78463114Y-68545285D01*
X78427400Y-68652428D01*
X78355971Y-68723857D01*
X78284542Y-68759571D01*
X78141685Y-68795285D01*
X78034542Y-68795285D01*
X77891685Y-68759571D01*
X77820257Y-68723857D01*
X77748828Y-68652428D01*
X77713114Y-68545285D01*
X77713114Y-68366714D01*
X86083114Y-66883028D02*
X86083114Y-67347314D01*
X85797400Y-67097314D01*
X85797400Y-67204457D01*
X85761685Y-67275885D01*
X85725971Y-67311600D01*
X85654542Y-67347314D01*
X85475971Y-67347314D01*
X85404542Y-67311600D01*
X85368828Y-67275885D01*
X85333114Y-67204457D01*
X85333114Y-66990171D01*
X85368828Y-66918742D01*
X85404542Y-66883028D01*
X86083114Y-67561600D02*
X85333114Y-67811600D01*
X86083114Y-68061600D01*
X86083114Y-68240171D02*
X86083114Y-68704457D01*
X85797400Y-68454457D01*
X85797400Y-68561600D01*
X85761685Y-68633028D01*
X85725971Y-68668742D01*
X85654542Y-68704457D01*
X85475971Y-68704457D01*
X85404542Y-68668742D01*
X85368828Y-68633028D01*
X85333114Y-68561600D01*
X85333114Y-68347314D01*
X85368828Y-68275885D01*
X85404542Y-68240171D01*
X77750971Y-61170657D02*
X77715257Y-61206371D01*
X77608114Y-61242085D01*
X77536685Y-61242085D01*
X77429542Y-61206371D01*
X77358114Y-61134942D01*
X77322400Y-61063514D01*
X77286685Y-60920657D01*
X77286685Y-60813514D01*
X77322400Y-60670657D01*
X77358114Y-60599228D01*
X77429542Y-60527800D01*
X77536685Y-60492085D01*
X77608114Y-60492085D01*
X77715257Y-60527800D01*
X77750971Y-60563514D01*
X78072400Y-61242085D02*
X78072400Y-60492085D01*
X78358114Y-60492085D01*
X78429542Y-60527800D01*
X78465257Y-60563514D01*
X78500971Y-60634942D01*
X78500971Y-60742085D01*
X78465257Y-60813514D01*
X78429542Y-60849228D01*
X78358114Y-60884942D01*
X78072400Y-60884942D01*
X78786685Y-60563514D02*
X78822400Y-60527800D01*
X78893828Y-60492085D01*
X79072400Y-60492085D01*
X79143828Y-60527800D01*
X79179542Y-60563514D01*
X79215257Y-60634942D01*
X79215257Y-60706371D01*
X79179542Y-60813514D01*
X78750971Y-61242085D01*
X79215257Y-61242085D01*
X79929542Y-61242085D02*
X79500971Y-61242085D01*
X79715257Y-61242085D02*
X79715257Y-60492085D01*
X79643828Y-60599228D01*
X79572400Y-60670657D01*
X79500971Y-60706371D01*
X80393828Y-60492085D02*
X80465257Y-60492085D01*
X80536685Y-60527800D01*
X80572400Y-60563514D01*
X80608114Y-60634942D01*
X80643828Y-60777800D01*
X80643828Y-60956371D01*
X80608114Y-61099228D01*
X80572400Y-61170657D01*
X80536685Y-61206371D01*
X80465257Y-61242085D01*
X80393828Y-61242085D01*
X80322400Y-61206371D01*
X80286685Y-61170657D01*
X80250971Y-61099228D01*
X80215257Y-60956371D01*
X80215257Y-60777800D01*
X80250971Y-60634942D01*
X80286685Y-60563514D01*
X80322400Y-60527800D01*
X80393828Y-60492085D01*
X80929542Y-60563514D02*
X80965257Y-60527800D01*
X81036685Y-60492085D01*
X81215257Y-60492085D01*
X81286685Y-60527800D01*
X81322400Y-60563514D01*
X81358114Y-60634942D01*
X81358114Y-60706371D01*
X81322400Y-60813514D01*
X80893828Y-61242085D01*
X81358114Y-61242085D01*
X80803914Y-66881800D02*
X80589628Y-66310371D01*
X80375342Y-66881800D01*
X80303914Y-67667514D02*
X80661057Y-67417514D01*
X80303914Y-67238942D02*
X81053914Y-67238942D01*
X81053914Y-67524657D01*
X81018200Y-67596085D01*
X80982485Y-67631800D01*
X80911057Y-67667514D01*
X80803914Y-67667514D01*
X80732485Y-67631800D01*
X80696771Y-67596085D01*
X80661057Y-67524657D01*
X80661057Y-67238942D01*
X81053914Y-67917514D02*
X80303914Y-68417514D01*
X81053914Y-68417514D02*
X80303914Y-67917514D01*
X80303914Y-68703228D02*
X81053914Y-68703228D01*
X75887400Y-67240171D02*
X75923114Y-67168742D01*
X75923114Y-67061600D01*
X75887400Y-66954457D01*
X75815971Y-66883028D01*
X75744542Y-66847314D01*
X75601685Y-66811600D01*
X75494542Y-66811600D01*
X75351685Y-66847314D01*
X75280257Y-66883028D01*
X75208828Y-66954457D01*
X75173114Y-67061600D01*
X75173114Y-67133028D01*
X75208828Y-67240171D01*
X75244542Y-67275885D01*
X75494542Y-67275885D01*
X75494542Y-67133028D01*
X75173114Y-67597314D02*
X75923114Y-67597314D01*
X75173114Y-68025885D01*
X75923114Y-68025885D01*
X75173114Y-68383028D02*
X75923114Y-68383028D01*
X75923114Y-68561600D01*
X75887400Y-68668742D01*
X75815971Y-68740171D01*
X75744542Y-68775885D01*
X75601685Y-68811600D01*
X75494542Y-68811600D01*
X75351685Y-68775885D01*
X75280257Y-68740171D01*
X75208828Y-68668742D01*
X75173114Y-68561600D01*
X75173114Y-68383028D01*
X68616533Y-73509142D02*
X68568914Y-73556761D01*
X68426057Y-73604380D01*
X68330819Y-73604380D01*
X68187961Y-73556761D01*
X68092723Y-73461523D01*
X68045104Y-73366285D01*
X67997485Y-73175809D01*
X67997485Y-73032952D01*
X68045104Y-72842476D01*
X68092723Y-72747238D01*
X68187961Y-72652000D01*
X68330819Y-72604380D01*
X68426057Y-72604380D01*
X68568914Y-72652000D01*
X68616533Y-72699619D01*
X69473676Y-72937714D02*
X69473676Y-73604380D01*
X69235580Y-72556761D02*
X68997485Y-73271047D01*
X69616533Y-73271047D01*
X134351733Y-64466742D02*
X134304114Y-64514361D01*
X134161257Y-64561980D01*
X134066019Y-64561980D01*
X133923161Y-64514361D01*
X133827923Y-64419123D01*
X133780304Y-64323885D01*
X133732685Y-64133409D01*
X133732685Y-63990552D01*
X133780304Y-63800076D01*
X133827923Y-63704838D01*
X133923161Y-63609600D01*
X134066019Y-63561980D01*
X134161257Y-63561980D01*
X134304114Y-63609600D01*
X134351733Y-63657219D01*
X134923161Y-63990552D02*
X134827923Y-63942933D01*
X134780304Y-63895314D01*
X134732685Y-63800076D01*
X134732685Y-63752457D01*
X134780304Y-63657219D01*
X134827923Y-63609600D01*
X134923161Y-63561980D01*
X135113638Y-63561980D01*
X135208876Y-63609600D01*
X135256495Y-63657219D01*
X135304114Y-63752457D01*
X135304114Y-63800076D01*
X135256495Y-63895314D01*
X135208876Y-63942933D01*
X135113638Y-63990552D01*
X134923161Y-63990552D01*
X134827923Y-64038171D01*
X134780304Y-64085790D01*
X134732685Y-64181028D01*
X134732685Y-64371504D01*
X134780304Y-64466742D01*
X134827923Y-64514361D01*
X134923161Y-64561980D01*
X135113638Y-64561980D01*
X135208876Y-64514361D01*
X135256495Y-64466742D01*
X135304114Y-64371504D01*
X135304114Y-64181028D01*
X135256495Y-64085790D01*
X135208876Y-64038171D01*
X135113638Y-63990552D01*
D13*
X133315064Y-58568000D02*
X131860936Y-58568000D01*
X133315064Y-56748000D02*
X131860936Y-56748000D01*
X130450000Y-91830536D02*
X130450000Y-93284664D01*
X128630000Y-91830536D02*
X128630000Y-93284664D01*
X154127200Y-71358000D02*
G75*
G03*
X154127200Y-71358000I-4013200J0D01*
G01*
X134021000Y-55211000D02*
X134021000Y-55055000D01*
X134021000Y-52895000D02*
X134021000Y-52739000D01*
X131419870Y-55054837D02*
G75*
G03*
X133501961Y-55055000I1041130J1079837D01*
G01*
X133501961Y-52895000D02*
G75*
G03*
X131419870Y-52895163I-1040961J-1080000D01*
G01*
X130788665Y-55053608D02*
G75*
G03*
X134021000Y-55210516I1672335J1078608D01*
G01*
X134021000Y-52739484D02*
G75*
G03*
X130788665Y-52896392I-1560000J-1235516D01*
G01*
X78270000Y-88017064D02*
X78270000Y-86562936D01*
X80090000Y-88017064D02*
X80090000Y-86562936D01*
X143615000Y-95830000D02*
X138155000Y-95830000D01*
X136155000Y-95830000D02*
X130695000Y-95830000D01*
X143615000Y-146750000D02*
X143615000Y-95830000D01*
X130695000Y-146750000D02*
X143615000Y-146750000D01*
X130695000Y-95830000D02*
X130695000Y-146750000D01*
X136155000Y-95830000D02*
G75*
G03*
X138155000Y-95830000I1000000J0D01*
G01*
X136677348Y-92943000D02*
X138099852Y-92943000D01*
X136677348Y-94763000D02*
X138099852Y-94763000D01*
X62323200Y-126323400D02*
X75243200Y-126323400D01*
X67783200Y-75403400D02*
X62323200Y-75403400D01*
X75243200Y-126323400D02*
X75243200Y-75403400D01*
X75243200Y-75403400D02*
X69783200Y-75403400D01*
X62323200Y-75403400D02*
X62323200Y-126323400D01*
X67783200Y-75403400D02*
G75*
G03*
X69783200Y-75403400I1000000J0D01*
G01*
X136430000Y-58430000D02*
X143530000Y-58430000D01*
X143530000Y-58430000D02*
X143530000Y-51330000D01*
X143530000Y-51330000D02*
X136430000Y-51330000D01*
X136430000Y-51330000D02*
X136430000Y-58430000D01*
X89458748Y-108411600D02*
X90881252Y-108411600D01*
X89458748Y-110231600D02*
X90881252Y-110231600D01*
X60600600Y-71531800D02*
X60600600Y-74131800D01*
X60600600Y-70261800D02*
X60600600Y-68931800D01*
X65800600Y-68931800D02*
X65800600Y-74131800D01*
X60600600Y-68931800D02*
X61930600Y-68931800D01*
X60600600Y-74131800D02*
X65800600Y-74131800D01*
X63200600Y-68931800D02*
X65800600Y-68931800D01*
X60600600Y-71531800D02*
X63200600Y-71531800D01*
X63200600Y-71531800D02*
X63200600Y-68931800D01*
X129096113Y-69699000D02*
X129096113Y-68429000D01*
X128376113Y-69699000D02*
X128376113Y-68954000D01*
X128856113Y-69699000D02*
X128856113Y-68564000D01*
X130057113Y-73312000D02*
X130057113Y-68166000D01*
X129817113Y-69699000D02*
X129817113Y-68196000D01*
X133061888Y-72214000D02*
X132561888Y-72214000D01*
X129416113Y-69699000D02*
X129416113Y-68297000D01*
X129536113Y-69699000D02*
X129536113Y-68259000D01*
X128576113Y-72710000D02*
X128576113Y-71779000D01*
X128416113Y-72565000D02*
X128416113Y-71779000D01*
X127736113Y-71416000D02*
X127736113Y-70062000D01*
X128936113Y-69699000D02*
X128936113Y-68515000D01*
X129777113Y-73275000D02*
X129777113Y-71779000D01*
X127936113Y-71917000D02*
X127936113Y-69561000D01*
X128736113Y-72834000D02*
X128736113Y-71779000D01*
X128536113Y-72676000D02*
X128536113Y-71779000D01*
X129937113Y-73300000D02*
X129937113Y-71779000D01*
X128176113Y-69699000D02*
X128176113Y-69185000D01*
X130017113Y-73308000D02*
X130017113Y-71779000D01*
X128896113Y-72939000D02*
X128896113Y-71779000D01*
X128656113Y-69699000D02*
X128656113Y-68704000D01*
X129697113Y-73259000D02*
X129697113Y-71779000D01*
X129416113Y-73181000D02*
X129416113Y-71779000D01*
X128176113Y-72293000D02*
X128176113Y-71779000D01*
X128776113Y-69699000D02*
X128776113Y-68617000D01*
X129977113Y-73304000D02*
X129977113Y-71779000D01*
X128696113Y-69699000D02*
X128696113Y-68674000D01*
X129056113Y-73029000D02*
X129056113Y-71779000D01*
X127976113Y-71990000D02*
X127976113Y-71779000D01*
X130017113Y-69699000D02*
X130017113Y-68170000D01*
X128016113Y-72058000D02*
X128016113Y-71779000D01*
X130217113Y-73319000D02*
X130217113Y-68159000D01*
X130177113Y-73318000D02*
X130177113Y-68160000D01*
X129296113Y-69699000D02*
X129296113Y-68341000D01*
X129617113Y-73240000D02*
X129617113Y-71779000D01*
X129697113Y-69699000D02*
X129697113Y-68219000D01*
X128336113Y-72482000D02*
X128336113Y-71779000D01*
X130257113Y-73319000D02*
X130257113Y-68159000D01*
X129496113Y-69699000D02*
X129496113Y-68271000D01*
X129817113Y-73282000D02*
X129817113Y-71779000D01*
X128616113Y-69699000D02*
X128616113Y-68735000D01*
X132811888Y-72464000D02*
X132811888Y-71964000D01*
X128496113Y-69699000D02*
X128496113Y-68838000D01*
X129857113Y-73289000D02*
X129857113Y-71779000D01*
X128496113Y-72640000D02*
X128496113Y-71779000D01*
X128056113Y-72122000D02*
X128056113Y-71779000D01*
X128576113Y-69699000D02*
X128576113Y-68768000D01*
X129536113Y-73219000D02*
X129536113Y-71779000D01*
X129096113Y-73049000D02*
X129096113Y-71779000D01*
X128256113Y-69699000D02*
X128256113Y-69086000D01*
X128016113Y-69699000D02*
X128016113Y-69420000D01*
X128816113Y-69699000D02*
X128816113Y-68590000D01*
X129617113Y-69699000D02*
X129617113Y-68238000D01*
X128296113Y-72438000D02*
X128296113Y-71779000D01*
X129336113Y-69699000D02*
X129336113Y-68325000D01*
X128816113Y-72888000D02*
X128816113Y-71779000D01*
X129937113Y-69699000D02*
X129937113Y-68178000D01*
X128696113Y-72804000D02*
X128696113Y-71779000D01*
X129016113Y-73007000D02*
X129016113Y-71779000D01*
X129376113Y-73167000D02*
X129376113Y-71779000D01*
X130097113Y-73315000D02*
X130097113Y-68163000D01*
X128256113Y-72392000D02*
X128256113Y-71779000D01*
X129737113Y-73267000D02*
X129737113Y-71779000D01*
X129136113Y-73068000D02*
X129136113Y-71779000D01*
X128096113Y-72182000D02*
X128096113Y-71779000D01*
X128856113Y-72914000D02*
X128856113Y-71779000D01*
X129056113Y-69699000D02*
X129056113Y-68449000D01*
X128456113Y-72603000D02*
X128456113Y-71779000D01*
X127776113Y-71544000D02*
X127776113Y-69934000D01*
X128536113Y-69699000D02*
X128536113Y-68802000D01*
X128896113Y-69699000D02*
X128896113Y-68539000D01*
X128136113Y-69699000D02*
X128136113Y-69239000D01*
X129496113Y-73207000D02*
X129496113Y-71779000D01*
X129256113Y-69699000D02*
X129256113Y-68357000D01*
X128976113Y-72986000D02*
X128976113Y-71779000D01*
X127696113Y-71257000D02*
X127696113Y-70221000D01*
X127816113Y-71654000D02*
X127816113Y-69824000D01*
X129577113Y-73230000D02*
X129577113Y-71779000D01*
X128656113Y-72774000D02*
X128656113Y-71779000D01*
X129657113Y-73250000D02*
X129657113Y-71779000D01*
X127976113Y-69699000D02*
X127976113Y-69488000D01*
X128056113Y-69699000D02*
X128056113Y-69356000D01*
X127656113Y-71023000D02*
X127656113Y-70455000D01*
X127896113Y-71837000D02*
X127896113Y-69641000D01*
X128216113Y-69699000D02*
X128216113Y-69134000D01*
X128216113Y-72344000D02*
X128216113Y-71779000D01*
X128296113Y-69699000D02*
X128296113Y-69040000D01*
X129657113Y-69699000D02*
X129657113Y-68228000D01*
X129376113Y-69699000D02*
X129376113Y-68311000D01*
X129577113Y-69699000D02*
X129577113Y-68248000D01*
X128376113Y-72524000D02*
X128376113Y-71779000D01*
X129216113Y-69699000D02*
X129216113Y-68374000D01*
X129456113Y-73194000D02*
X129456113Y-71779000D01*
X128976113Y-69699000D02*
X128976113Y-68492000D01*
X128936113Y-72963000D02*
X128936113Y-71779000D01*
X128136113Y-72239000D02*
X128136113Y-71779000D01*
X129256113Y-73121000D02*
X129256113Y-71779000D01*
X129176113Y-73087000D02*
X129176113Y-71779000D01*
X129016113Y-69699000D02*
X129016113Y-68471000D01*
X128736113Y-69699000D02*
X128736113Y-68644000D01*
X129737113Y-69699000D02*
X129737113Y-68211000D01*
X129977113Y-69699000D02*
X129977113Y-68174000D01*
X129897113Y-73295000D02*
X129897113Y-71779000D01*
X129857113Y-69699000D02*
X129857113Y-68189000D01*
X128096113Y-69699000D02*
X128096113Y-69296000D01*
X130137113Y-73317000D02*
X130137113Y-68161000D01*
X128416113Y-69699000D02*
X128416113Y-68913000D01*
X128336113Y-69699000D02*
X128336113Y-68996000D01*
X129136113Y-69699000D02*
X129136113Y-68410000D01*
X128616113Y-72743000D02*
X128616113Y-71779000D01*
X129777113Y-69699000D02*
X129777113Y-68203000D01*
X128776113Y-72861000D02*
X128776113Y-71779000D01*
X129897113Y-69699000D02*
X129897113Y-68183000D01*
X129336113Y-73153000D02*
X129336113Y-71779000D01*
X129176113Y-69699000D02*
X129176113Y-68391000D01*
X128456113Y-69699000D02*
X128456113Y-68875000D01*
X127856113Y-71750000D02*
X127856113Y-69728000D01*
X129296113Y-73137000D02*
X129296113Y-71779000D01*
X129456113Y-69699000D02*
X129456113Y-68284000D01*
X129216113Y-73104000D02*
X129216113Y-71779000D01*
X132877113Y-70739000D02*
G75*
G03*
X132877113Y-70739000I-2620000J0D01*
G01*
X138633252Y-60050000D02*
X137210748Y-60050000D01*
X138633252Y-61870000D02*
X137210748Y-61870000D01*
X140534000Y-71469000D02*
X140534000Y-69959000D01*
X143804000Y-69959000D02*
X133564000Y-69959000D01*
X133564000Y-71469000D02*
X133564000Y-66828000D01*
X143804000Y-71469000D02*
X133564000Y-71469000D01*
X143804000Y-71469000D02*
X143804000Y-66828000D01*
X143804000Y-66828000D02*
X133564000Y-66828000D01*
X136833000Y-71469000D02*
X136833000Y-69959000D01*
X123084000Y-62033136D02*
X123084000Y-63487264D01*
X121264000Y-62033136D02*
X121264000Y-63487264D01*
X131809800Y-87460600D02*
X131809800Y-82160600D01*
X106289800Y-85810600D02*
X106289800Y-87460600D01*
X106289800Y-87460600D02*
X131809800Y-87460600D01*
X106289800Y-82160600D02*
X106289800Y-83810600D01*
X131809800Y-82160600D02*
X106289800Y-82160600D01*
X106289800Y-85810600D02*
G75*
G03*
X106289800Y-83810600I0J1000000D01*
G01*
X60590200Y-54605800D02*
X61920200Y-54605800D01*
X60590200Y-57205800D02*
X60590200Y-67425800D01*
X63190200Y-57205800D02*
X63190200Y-54605800D01*
X60590200Y-67425800D02*
X65790200Y-67425800D01*
X60590200Y-57205800D02*
X63190200Y-57205800D01*
X60590200Y-55935800D02*
X60590200Y-54605800D01*
X63190200Y-54605800D02*
X65790200Y-54605800D01*
X65790200Y-54605800D02*
X65790200Y-67425800D01*
X112293348Y-92562000D02*
X113715852Y-92562000D01*
X112293348Y-94382000D02*
X113715852Y-94382000D01*
X120460000Y-54720000D02*
X120460000Y-56220000D01*
X126210000Y-52220000D02*
X121710000Y-52220000D01*
X127460000Y-56220000D02*
X127460000Y-54720000D01*
X121710000Y-58720000D02*
X126210000Y-58720000D01*
X74864400Y-127701800D02*
X74864400Y-129701800D01*
X74864400Y-127701800D02*
X78764400Y-127701800D01*
X74864400Y-129701800D02*
X78764400Y-129701800D01*
X128934600Y-65970000D02*
X128934600Y-65610000D01*
X129975600Y-66738000D02*
X129975600Y-65610000D01*
X129934600Y-63930000D02*
X129934600Y-62816000D01*
X130375600Y-63930000D02*
X130375600Y-62708000D01*
X128974600Y-63930000D02*
X128974600Y-63516000D01*
X129454600Y-63930000D02*
X129454600Y-63062000D01*
X129134600Y-63930000D02*
X129134600Y-63332000D01*
X129494600Y-66505000D02*
X129494600Y-65610000D01*
X130255600Y-63930000D02*
X130255600Y-62728000D01*
X130295600Y-63930000D02*
X130295600Y-62720000D01*
X129334600Y-66389000D02*
X129334600Y-65610000D01*
X130655600Y-66850000D02*
X130655600Y-62690000D01*
X129054600Y-63930000D02*
X129054600Y-63419000D01*
X129534600Y-66530000D02*
X129534600Y-65610000D01*
X129614600Y-63930000D02*
X129614600Y-62962000D01*
X130375600Y-66832000D02*
X130375600Y-65610000D01*
X129014600Y-66074000D02*
X129014600Y-65610000D01*
X129814600Y-63930000D02*
X129814600Y-62863000D01*
X130335600Y-63930000D02*
X130335600Y-62714000D01*
X128894600Y-63930000D02*
X128894600Y-63628000D01*
X129854600Y-63930000D02*
X129854600Y-62846000D01*
X129414600Y-66450000D02*
X129414600Y-65610000D01*
X128934600Y-63930000D02*
X128934600Y-63570000D01*
X130015600Y-63930000D02*
X130015600Y-62788000D01*
X129734600Y-63930000D02*
X129734600Y-62900000D01*
X130095600Y-66775000D02*
X130095600Y-65610000D01*
X129094600Y-63930000D02*
X129094600Y-63374000D01*
X129174600Y-66248000D02*
X129174600Y-65610000D01*
X129214600Y-66286000D02*
X129214600Y-65610000D01*
X129534600Y-63930000D02*
X129534600Y-63010000D01*
X129694600Y-66621000D02*
X129694600Y-65610000D01*
X130455600Y-63930000D02*
X130455600Y-62699000D01*
X130295600Y-66820000D02*
X130295600Y-65610000D01*
X129734600Y-66640000D02*
X129734600Y-65610000D01*
X129894600Y-63930000D02*
X129894600Y-62830000D01*
X128774600Y-65710000D02*
X128774600Y-63830000D01*
X129854600Y-66694000D02*
X129854600Y-65610000D01*
X129094600Y-66166000D02*
X129094600Y-65610000D01*
X129654600Y-63930000D02*
X129654600Y-62940000D01*
X128694600Y-65538000D02*
X128694600Y-64002000D01*
X129934600Y-66724000D02*
X129934600Y-65610000D01*
X130215600Y-66804000D02*
X130215600Y-65610000D01*
X130255600Y-66812000D02*
X130255600Y-65610000D01*
X129294600Y-63930000D02*
X129294600Y-63183000D01*
X129774600Y-66659000D02*
X129774600Y-65610000D01*
X128814600Y-65783000D02*
X128814600Y-63757000D01*
X129214600Y-63930000D02*
X129214600Y-63254000D01*
X129294600Y-66357000D02*
X129294600Y-65610000D01*
X130415600Y-66837000D02*
X130415600Y-65610000D01*
X129254600Y-66322000D02*
X129254600Y-65610000D01*
X128854600Y-63930000D02*
X128854600Y-63690000D01*
X129574600Y-66555000D02*
X129574600Y-65610000D01*
X129014600Y-63930000D02*
X129014600Y-63466000D01*
X129774600Y-63930000D02*
X129774600Y-62881000D01*
X129894600Y-66710000D02*
X129894600Y-65610000D01*
X130135600Y-63930000D02*
X130135600Y-62754000D01*
X128734600Y-65629000D02*
X128734600Y-63911000D01*
X130175600Y-63930000D02*
X130175600Y-62745000D01*
X130055600Y-63930000D02*
X130055600Y-62776000D01*
X129054600Y-66121000D02*
X129054600Y-65610000D01*
X128574600Y-65140000D02*
X128574600Y-64400000D01*
X129174600Y-63930000D02*
X129174600Y-63292000D01*
X130415600Y-63930000D02*
X130415600Y-62703000D01*
X130095600Y-63930000D02*
X130095600Y-62765000D01*
X129254600Y-63930000D02*
X129254600Y-63218000D01*
X130495600Y-66844000D02*
X130495600Y-62696000D01*
X130335600Y-66826000D02*
X130335600Y-65610000D01*
X130615600Y-66850000D02*
X130615600Y-62690000D01*
X129374600Y-63930000D02*
X129374600Y-63120000D01*
X129614600Y-66578000D02*
X129614600Y-65610000D01*
X128894600Y-65912000D02*
X128894600Y-65610000D01*
X130575600Y-66849000D02*
X130575600Y-62691000D01*
X128974600Y-66024000D02*
X128974600Y-65610000D01*
X129334600Y-63930000D02*
X129334600Y-63151000D01*
X129975600Y-63930000D02*
X129975600Y-62802000D01*
X130455600Y-66841000D02*
X130455600Y-65610000D01*
X129694600Y-63930000D02*
X129694600Y-62919000D01*
X128614600Y-65307000D02*
X128614600Y-64233000D01*
X132725401Y-66165000D02*
X132725401Y-65765000D01*
X130175600Y-66795000D02*
X130175600Y-65610000D01*
X130135600Y-66786000D02*
X130135600Y-65610000D01*
X129654600Y-66600000D02*
X129654600Y-65610000D01*
X128654600Y-65434000D02*
X128654600Y-64106000D01*
X129414600Y-63930000D02*
X129414600Y-63090000D01*
X128854600Y-65850000D02*
X128854600Y-65610000D01*
X130535600Y-66847000D02*
X130535600Y-62693000D01*
X130055600Y-66764000D02*
X130055600Y-65610000D01*
X130015600Y-66752000D02*
X130015600Y-65610000D01*
X129134600Y-66208000D02*
X129134600Y-65610000D01*
X129494600Y-63930000D02*
X129494600Y-63035000D01*
X130215600Y-63930000D02*
X130215600Y-62736000D01*
X129814600Y-66677000D02*
X129814600Y-65610000D01*
X129454600Y-66478000D02*
X129454600Y-65610000D01*
X129574600Y-63930000D02*
X129574600Y-62985000D01*
X132925401Y-65965000D02*
X132525401Y-65965000D01*
X129374600Y-66420000D02*
X129374600Y-65610000D01*
X132775600Y-64770000D02*
G75*
G03*
X132775600Y-64770000I-2120000J0D01*
G01*
X118597000Y-62048948D02*
X118597000Y-63471452D01*
X120417000Y-62048948D02*
X120417000Y-63471452D01*
X103509400Y-85469252D02*
X103509400Y-84046748D01*
X105329400Y-85469252D02*
X105329400Y-84046748D01*
X124681600Y-95969200D02*
X101581600Y-95969200D01*
X124681600Y-146569200D02*
X124681600Y-95969200D01*
X103861600Y-95969200D02*
X103861600Y-98229200D01*
X101581600Y-95969200D02*
X101581600Y-97829200D01*
X101581600Y-102729200D02*
X101581600Y-146569200D01*
X100561600Y-107899200D02*
X100561600Y-105359200D01*
X101581600Y-146569200D02*
X124681600Y-146569200D01*
X103211600Y-100279200D02*
G75*
G03*
X103211600Y-100279200I-900000J0D01*
G01*
X104861600Y-100279200D02*
G75*
G03*
X104861600Y-100279200I-2550000J0D01*
G01*
X89408748Y-72560000D02*
X90831252Y-72560000D01*
X89408748Y-70740000D02*
X90831252Y-70740000D01*
X149414000Y-97160000D02*
X149414000Y-95830000D01*
X154614000Y-95830000D02*
X154614000Y-146750000D01*
X149414000Y-146750000D02*
X154614000Y-146750000D01*
X149414000Y-98430000D02*
X149414000Y-146750000D01*
X152014000Y-95830000D02*
X154614000Y-95830000D01*
X149414000Y-98430000D02*
X152014000Y-98430000D01*
X149414000Y-95830000D02*
X150744000Y-95830000D01*
X152014000Y-98430000D02*
X152014000Y-95830000D01*
X123890600Y-62560200D02*
X123890600Y-61910200D01*
X127010600Y-62560200D02*
X127010600Y-63210200D01*
X127010600Y-62560200D02*
X127010600Y-60885200D01*
X123890600Y-62560200D02*
X123890600Y-63210200D01*
X96630000Y-111141200D02*
X91170000Y-111141200D01*
X83710000Y-111141200D02*
X83710000Y-146821200D01*
X96630000Y-146821200D02*
X96630000Y-111141200D01*
X83710000Y-146821200D02*
X96630000Y-146821200D01*
X89170000Y-111141200D02*
X83710000Y-111141200D01*
X89170000Y-111141200D02*
G75*
G03*
X91170000Y-111141200I1000000J0D01*
G01*
X83628800Y-105922200D02*
X96548800Y-105922200D01*
X83628800Y-75322200D02*
X83628800Y-105922200D01*
X96548800Y-75322200D02*
X91088800Y-75322200D01*
X89088800Y-75322200D02*
X83628800Y-75322200D01*
X96548800Y-105922200D02*
X96548800Y-75322200D01*
X89088800Y-75322200D02*
G75*
G03*
X91088800Y-75322200I1000000J0D01*
G01*
X154587000Y-65427000D02*
X151787000Y-65427000D01*
X154827000Y-65667000D02*
X153087000Y-65667000D01*
X148187000Y-65427000D02*
X145387000Y-65427000D01*
X145387000Y-59827000D02*
X145387000Y-50827000D01*
X154587000Y-50827000D02*
X154587000Y-65427000D01*
X145387000Y-65427000D02*
X145387000Y-63427000D01*
X145387000Y-50827000D02*
X154587000Y-50827000D01*
X154827000Y-63927000D02*
X154827000Y-65667000D01*
X113539600Y-78382800D02*
X125689600Y-78382800D01*
X125689600Y-65482800D02*
X114289600Y-65482800D01*
X126439600Y-77632800D02*
X126439600Y-66232800D01*
X113539600Y-66232800D02*
X113539600Y-78382800D01*
X126439600Y-66232800D02*
G75*
G03*
X125689600Y-65482800I-750000J0D01*
G01*
X114289600Y-65482800D02*
G75*
G03*
X113539600Y-66232800I0J-750000D01*
G01*
X125689600Y-78382800D02*
G75*
G03*
X126439600Y-77632800I0J750000D01*
G01*
X60569800Y-133807200D02*
X60569800Y-132477200D01*
X60569800Y-135077200D02*
X63169800Y-135077200D01*
X63169800Y-135077200D02*
X63169800Y-132477200D01*
X60569800Y-132477200D02*
X61899800Y-132477200D01*
X65769800Y-132477200D02*
X65769800Y-145297200D01*
X60569800Y-145297200D02*
X65769800Y-145297200D01*
X60569800Y-135077200D02*
X60569800Y-145297200D01*
X63169800Y-132477200D02*
X65769800Y-132477200D01*
X78375000Y-122743400D02*
X78375000Y-126643400D01*
X80375000Y-122743400D02*
X80375000Y-126643400D01*
X80375000Y-122743400D02*
X78375000Y-122743400D01*
X71550000Y-71520000D02*
X87250000Y-71520000D01*
X87250000Y-71520000D02*
X87250000Y-50920000D01*
X87250000Y-50920000D02*
X71550000Y-50920000D01*
X71550000Y-50920000D02*
X71550000Y-71520000D01*
X76900000Y-63520000D02*
X81900000Y-63520000D01*
X81900000Y-63520000D02*
X81900000Y-58520000D01*
X81900000Y-58520000D02*
X76900000Y-58520000D01*
X76900000Y-58520000D02*
X76900000Y-63520000D01*
X75650000Y-57620000D02*
X83150000Y-57620000D01*
X83150000Y-57620000D02*
X83150000Y-50920000D01*
X83150000Y-50920000D02*
X75650000Y-50920000D01*
X75650000Y-50920000D02*
X75650000Y-57620000D01*
X68071948Y-74062000D02*
X69494452Y-74062000D01*
X68071948Y-72242000D02*
X69494452Y-72242000D01*
X137210748Y-64918000D02*
X138633252Y-64918000D01*
X137210748Y-63098000D02*
X138633252Y-63098000D01*
M02*
