M48
METRIC,TZ
T1C0.400
T2C0.500
T3C0.600
T4C0.762
T5C0.800
T6C0.900
T7C1.000
T8C1.100
%
G90
G05
T1
X59182Y-141224
X59309Y-136398
X59436Y-58547
X59436Y-63373
X59436Y-71374
X67140Y-100770
X67330Y-94910
X71400Y-77560
X71460Y-83170
X71709Y-130526
X72535Y-131351
X73397Y-132213
X74295Y-137541
X74295Y-145161
X75862Y-134679
X77280Y-135461
X77650Y-103425
X78289Y-135833
X78486Y-90678
X78486Y-94440
X78720Y-105580
X78740Y-98298
X79082Y-136681
X79799Y-137441
X79999Y-91892
X80010Y-106430
X80010Y-120396
X80234Y-128977
X84201Y-109195
X85039Y-102794
X85115Y-100736
X85275Y-88875
X85673Y-107010
X85776Y-112319
X86335Y-90653
X86868Y-76708
X87142Y-81732
X88163Y-84277
X88189Y-140437
X88214Y-142900
X88240Y-137947
X88265Y-135331
X88773Y-52324
X88773Y-54850
X88773Y-57375
X88773Y-60198
X88773Y-62738
X88773Y-112268
X88900Y-86792
X89100Y-104250
X90185Y-93545
X92950Y-114980
X94615Y-104140
X94847Y-90653
X96901Y-107010
X99240Y-89360
X99240Y-106980
X100000Y-141656
X100377Y-125327
X100533Y-95352
X100660Y-90653
X102033Y-100838
X105075Y-91025
X107290Y-128270
X108255Y-133198
X108300Y-104810
X108660Y-101520
X108852Y-123152
X109626Y-128600
X110642Y-127457
X110950Y-141850
X111470Y-100300
X111506Y-113030
X112268Y-118059
X113068Y-120040
X113175Y-104450
X113792Y-109830
X113792Y-141808
X114592Y-138328
X114656Y-106629
X114656Y-108712
X115316Y-140919
X116205Y-71755
X116510Y-119304
X116522Y-142977
X116535Y-122149
X116600Y-100775
X117780Y-106807
X117971Y-128575
X118516Y-125654
X118770Y-122022
X118775Y-100725
X119075Y-93800
X120015Y-68199
X120320Y-99360
X120650Y-83439
X120900Y-103750
X121575Y-93800
X122850Y-99400
X122860Y-109380
X123690Y-131470
X123825Y-117983
X123825Y-119888
X123950Y-122225
X124025Y-103675
X125050Y-93800
X125560Y-107840
X126750Y-91100
X131674Y-124155
X131699Y-113665
X131699Y-121285
X132465Y-128331
X133037Y-130187
X133150Y-99075
X133170Y-102270
X133175Y-106650
X133175Y-110875
X133225Y-62525
X133232Y-116332
X133858Y-145669
X133975Y-128330
X134163Y-98171
X134740Y-125735
X135485Y-123190
X137114Y-98171
X137198Y-124079
X137198Y-139192
X137885Y-99060
X137922Y-141732
X138651Y-86200
X138684Y-135260
X139450Y-126575
X140241Y-129055
X140843Y-145669
X140966Y-131572
X141689Y-108575
X141690Y-133985
X142568Y-136652
X142580Y-121270
X143305Y-86200
X147040Y-97160
X147400Y-113675
X148717Y-106045
X156083Y-102362
X156083Y-109855
X156083Y-117602
X156083Y-125349
X156083Y-132715
X156083Y-140208
T3
X129656Y-64770
X131656Y-64770
T4
X147574Y-71358
X152603Y-71358
T5
X61163Y-76733
X61163Y-79273
X61163Y-81813
X61163Y-84353
X61163Y-86893
X61163Y-89433
X61163Y-91973
X61163Y-94513
X61163Y-97053
X61163Y-99593
X61163Y-102133
X61163Y-104673
X61163Y-107213
X61163Y-109753
X61163Y-112293
X61163Y-114833
X61163Y-117373
X61163Y-119913
X61163Y-122453
X61163Y-124993
X73050Y-70020
X75590Y-70020
X76403Y-76733
X76403Y-79273
X76403Y-81813
X76403Y-84353
X76403Y-86893
X76403Y-89433
X76403Y-91973
X76403Y-94513
X76403Y-97053
X76403Y-99593
X76403Y-102133
X76403Y-104673
X76403Y-107213
X76403Y-109753
X76403Y-112293
X76403Y-114833
X76403Y-117373
X76403Y-119913
X76403Y-122453
X76403Y-124993
X78130Y-70020
X80670Y-70020
X82469Y-76652
X82469Y-79192
X82469Y-81732
X82469Y-84272
X82469Y-86812
X82469Y-89352
X82469Y-91892
X82469Y-94432
X82469Y-96972
X82469Y-99512
X82469Y-102052
X82469Y-104592
X82550Y-112471
X82550Y-115011
X82550Y-117551
X82550Y-120091
X82550Y-122631
X82550Y-125171
X82550Y-127711
X82550Y-130251
X82550Y-132791
X82550Y-135331
X82550Y-137871
X82550Y-140411
X82550Y-142951
X82550Y-145491
X83210Y-70020
X85750Y-70020
X97709Y-76652
X97709Y-79192
X97709Y-81732
X97709Y-84272
X97709Y-86812
X97709Y-89352
X97709Y-91892
X97709Y-94432
X97709Y-96972
X97709Y-99512
X97709Y-102052
X97709Y-104592
X97790Y-112471
X97790Y-115011
X97790Y-117551
X97790Y-120091
X97790Y-122631
X97790Y-125171
X97790Y-127711
X97790Y-130251
X97790Y-132791
X97790Y-135331
X97790Y-137871
X97790Y-140411
X97790Y-142951
X97790Y-145491
X107620Y-81001
X107620Y-88621
X110160Y-81001
X110160Y-88621
X112700Y-81001
X112700Y-88621
X115240Y-81001
X115240Y-88621
X116180Y-68123
X116180Y-75743
X117780Y-81001
X117780Y-88621
X120320Y-81001
X120320Y-88621
X122860Y-81001
X122860Y-88621
X123800Y-68123
X123800Y-75743
X125400Y-81001
X125400Y-88621
X127940Y-81001
X127940Y-88621
X129007Y-70739
X129535Y-97160
X129535Y-99700
X129535Y-102240
X129535Y-104780
X129535Y-107320
X129535Y-109860
X129535Y-112400
X129535Y-114940
X129535Y-117480
X129535Y-120020
X129535Y-122560
X129535Y-125100
X129535Y-127640
X129535Y-130180
X129535Y-132720
X129535Y-135260
X129535Y-137800
X129535Y-140340
X129535Y-142880
X129535Y-145420
X130480Y-81001
X130480Y-88621
X131507Y-70739
X137440Y-52880
X137440Y-54880
X137440Y-56880
X142520Y-52880
X142520Y-54880
X142520Y-56880
X144775Y-97160
X144775Y-99700
X144775Y-102240
X144775Y-104780
X144775Y-107320
X144775Y-109860
X144775Y-112400
X144775Y-114940
X144775Y-117480
X144775Y-120020
X144775Y-122560
X144775Y-125100
X144775Y-127640
X144775Y-130180
X144775Y-132720
X144775Y-135260
X144775Y-137800
X144775Y-140340
X144775Y-142880
X144775Y-145420
T6
X131191Y-53975
X133731Y-53975
T7
X61900Y-133807
X61900Y-136347
X61900Y-138887
X61900Y-141427
X61900Y-143967
X61920Y-55936
X61920Y-58476
X61920Y-61016
X61920Y-63556
X61920Y-66096
X61931Y-70262
X61931Y-72802
X64440Y-133807
X64440Y-136347
X64440Y-138887
X64440Y-141427
X64440Y-143967
X64460Y-55936
X64460Y-58476
X64460Y-61016
X64460Y-63556
X64460Y-66096
X64471Y-70262
X64471Y-72802
X105512Y-106629
X105512Y-109169
X105512Y-111709
X105512Y-114249
X105512Y-116789
X105512Y-119329
X105512Y-121869
X105512Y-124409
X105512Y-126949
X105512Y-129489
X105512Y-132029
X105512Y-134569
X105512Y-137109
X105512Y-139649
X120710Y-53220
X120710Y-57720
X120752Y-106629
X120752Y-109169
X120752Y-111709
X120752Y-114249
X120752Y-116789
X120752Y-119329
X120752Y-121869
X120752Y-124409
X120752Y-126949
X120752Y-129489
X120752Y-132029
X120752Y-134569
X120752Y-137109
X120752Y-139649
X127210Y-53220
X127210Y-57720
X150744Y-97160
X150744Y-99700
X150744Y-102240
X150744Y-104780
X150744Y-107320
X150744Y-109860
X150744Y-112400
X150744Y-114940
X150744Y-117480
X150744Y-120020
X150744Y-122560
X150744Y-125100
X150744Y-127640
X150744Y-130180
X150744Y-132720
X150744Y-135260
X150744Y-137800
X150744Y-140340
X150744Y-142880
X150744Y-145420
X153284Y-97160
X153284Y-99700
X153284Y-102240
X153284Y-104780
X153284Y-107320
X153284Y-109860
X153284Y-112400
X153284Y-114940
X153284Y-117480
X153284Y-120020
X153284Y-122560
X153284Y-125100
X153284Y-127640
X153284Y-130180
X153284Y-132720
X153284Y-135260
X153284Y-137800
X153284Y-140340
X153284Y-142880
X153284Y-145420
T8
X136144Y-68199
X138684Y-68199
X141224Y-68199
T2
G00X145287Y-62427
M15
G01X145287Y-60827
M16
G05
G00X151037Y-58627
M15
G01X148937Y-58627
M16
G05
T3
G00X150987Y-64627
M15
G01X148987Y-64627
M16
G05
T0
M30
