G04 #@! TF.GenerationSoftware,KiCad,Pcbnew,6.0.11+dfsg-1*
G04 #@! TF.CreationDate,2024-06-12T11:52:24+08:00*
G04 #@! TF.ProjectId,DIY65C02.V2.CPU.Board,44495936-3543-4303-922e-56322e435055,rev?*
G04 #@! TF.SameCoordinates,Original*
G04 #@! TF.FileFunction,Soldermask,Top*
G04 #@! TF.FilePolarity,Negative*
%FSLAX46Y46*%
G04 Gerber Fmt 4.6, Leading zero omitted, Abs format (unit mm)*
G04 Created by KiCad (PCBNEW 6.0.11+dfsg-1) date 2024-06-12 11:52:24*
%MOMM*%
%LPD*%
G01*
G04 APERTURE LIST*
G04 Aperture macros list*
%AMRoundRect*
0 Rectangle with rounded corners*
0 $1 Rounding radius*
0 $2 $3 $4 $5 $6 $7 $8 $9 X,Y pos of 4 corners*
0 Add a 4 corners polygon primitive as box body*
4,1,4,$2,$3,$4,$5,$6,$7,$8,$9,$2,$3,0*
0 Add four circle primitives for the rounded corners*
1,1,$1+$1,$2,$3*
1,1,$1+$1,$4,$5*
1,1,$1+$1,$6,$7*
1,1,$1+$1,$8,$9*
0 Add four rect primitives between the rounded corners*
20,1,$1+$1,$2,$3,$4,$5,0*
20,1,$1+$1,$4,$5,$6,$7,0*
20,1,$1+$1,$6,$7,$8,$9,0*
20,1,$1+$1,$8,$9,$2,$3,0*%
G04 Aperture macros list end*
G04 #@! TA.AperFunction,Profile*
%ADD10C,0.100000*%
G04 #@! TD*
%ADD11RoundRect,0.250000X0.312500X0.625000X-0.312500X0.625000X-0.312500X-0.625000X0.312500X-0.625000X0*%
%ADD12RoundRect,0.250000X-0.625000X0.312500X-0.625000X-0.312500X0.625000X-0.312500X0.625000X0.312500X0*%
%ADD13C,1.524000*%
%ADD14R,1.800000X1.800000*%
%ADD15C,1.800000*%
%ADD16RoundRect,0.250000X0.625000X-0.312500X0.625000X0.312500X-0.625000X0.312500X-0.625000X-0.312500X0*%
%ADD17R,1.600000X1.600000*%
%ADD18O,1.600000X1.600000*%
%ADD19RoundRect,0.250000X-0.325000X-0.650000X0.325000X-0.650000X0.325000X0.650000X-0.325000X0.650000X0*%
%ADD20C,1.600000*%
%ADD21R,1.700000X1.700000*%
%ADD22O,1.700000X1.700000*%
%ADD23RoundRect,0.250000X0.325000X0.650000X-0.325000X0.650000X-0.325000X-0.650000X0.325000X-0.650000X0*%
%ADD24R,1.905000X2.000000*%
%ADD25O,1.905000X2.000000*%
%ADD26C,2.000000*%
%ADD27R,0.900000X1.200000*%
%ADD28R,1.200000X1.200000*%
%ADD29C,1.200000*%
%ADD30RoundRect,0.250000X-0.650000X0.325000X-0.650000X-0.325000X0.650000X-0.325000X0.650000X0.325000X0*%
%ADD31RoundRect,0.250000X0.650000X-0.325000X0.650000X0.325000X-0.650000X0.325000X-0.650000X-0.325000X0*%
%ADD32R,2.000000X1.440000*%
%ADD33O,2.000000X1.440000*%
%ADD34RoundRect,0.150000X-0.150000X0.587500X-0.150000X-0.587500X0.150000X-0.587500X0.150000X0.587500X0*%
%ADD35R,3.600000X2.600000*%
%ADD36O,4.000000X2.500000*%
%ADD37O,1.500000X3.000000*%
%ADD38R,1.200000X0.900000*%
G04 APERTURE END LIST*
D10*
X59944000Y-49784000D02*
G75*
G03*
X57912000Y-51816000I0J-2032000D01*
G01*
X59940000Y-149782000D02*
X155825000Y-149782000D01*
X57908000Y-147750000D02*
G75*
G03*
X59940000Y-149782000I2032000J0D01*
G01*
X157861000Y-147828000D02*
X157861000Y-51816000D01*
X57912000Y-51816000D02*
X57912000Y-147828000D01*
X157861000Y-51816000D02*
G75*
G03*
X155829000Y-49784000I-2032000J0D01*
G01*
X155829000Y-49784000D02*
X59944000Y-49784000D01*
X155829000Y-149782000D02*
G75*
G03*
X157861000Y-147750000I0J2032000D01*
G01*
D11*
X134050500Y-57658000D03*
X131125500Y-57658000D03*
D12*
X129540000Y-91095100D03*
X129540000Y-94020100D03*
D13*
X152603200Y-71358000D03*
X147574000Y-71358000D03*
D14*
X133731000Y-53975000D03*
D15*
X131191000Y-53975000D03*
D16*
X79180000Y-88752500D03*
X79180000Y-85827500D03*
D17*
X129535000Y-97160000D03*
D18*
X129535000Y-99700000D03*
X129535000Y-102240000D03*
X129535000Y-104780000D03*
X129535000Y-107320000D03*
X129535000Y-109860000D03*
X129535000Y-112400000D03*
X129535000Y-114940000D03*
X129535000Y-117480000D03*
X129535000Y-120020000D03*
X129535000Y-122560000D03*
X129535000Y-125100000D03*
X129535000Y-127640000D03*
X129535000Y-130180000D03*
X129535000Y-132720000D03*
X129535000Y-135260000D03*
X129535000Y-137800000D03*
X129535000Y-140340000D03*
X129535000Y-142880000D03*
X129535000Y-145420000D03*
X144775000Y-145420000D03*
X144775000Y-142880000D03*
X144775000Y-140340000D03*
X144775000Y-137800000D03*
X144775000Y-135260000D03*
X144775000Y-132720000D03*
X144775000Y-130180000D03*
X144775000Y-127640000D03*
X144775000Y-125100000D03*
X144775000Y-122560000D03*
X144775000Y-120020000D03*
X144775000Y-117480000D03*
X144775000Y-114940000D03*
X144775000Y-112400000D03*
X144775000Y-109860000D03*
X144775000Y-107320000D03*
X144775000Y-104780000D03*
X144775000Y-102240000D03*
X144775000Y-99700000D03*
X144775000Y-97160000D03*
D19*
X135913600Y-93853000D03*
X138863600Y-93853000D03*
D17*
X61163200Y-76733400D03*
D18*
X61163200Y-79273400D03*
X61163200Y-81813400D03*
X61163200Y-84353400D03*
X61163200Y-86893400D03*
X61163200Y-89433400D03*
X61163200Y-91973400D03*
X61163200Y-94513400D03*
X61163200Y-97053400D03*
X61163200Y-99593400D03*
X61163200Y-102133400D03*
X61163200Y-104673400D03*
X61163200Y-107213400D03*
X61163200Y-109753400D03*
X61163200Y-112293400D03*
X61163200Y-114833400D03*
X61163200Y-117373400D03*
X61163200Y-119913400D03*
X61163200Y-122453400D03*
X61163200Y-124993400D03*
X76403200Y-124993400D03*
X76403200Y-122453400D03*
X76403200Y-119913400D03*
X76403200Y-117373400D03*
X76403200Y-114833400D03*
X76403200Y-112293400D03*
X76403200Y-109753400D03*
X76403200Y-107213400D03*
X76403200Y-104673400D03*
X76403200Y-102133400D03*
X76403200Y-99593400D03*
X76403200Y-97053400D03*
X76403200Y-94513400D03*
X76403200Y-91973400D03*
X76403200Y-89433400D03*
X76403200Y-86893400D03*
X76403200Y-84353400D03*
X76403200Y-81813400D03*
X76403200Y-79273400D03*
X76403200Y-76733400D03*
D20*
X137440000Y-52880000D03*
X137440000Y-54880000D03*
X137440000Y-56880000D03*
X142520000Y-52880000D03*
X142520000Y-54880000D03*
X142520000Y-56880000D03*
D19*
X88695000Y-109321600D03*
X91645000Y-109321600D03*
D21*
X61930600Y-70261800D03*
D22*
X64470600Y-70261800D03*
X61930600Y-72801800D03*
X64470600Y-72801800D03*
D17*
X131507113Y-70739000D03*
D20*
X129007113Y-70739000D03*
D23*
X139397000Y-60960000D03*
X136447000Y-60960000D03*
D24*
X141224000Y-68199000D03*
D25*
X138684000Y-68199000D03*
X136144000Y-68199000D03*
D12*
X122174000Y-61297700D03*
X122174000Y-64222700D03*
D17*
X107619800Y-88620600D03*
D18*
X110159800Y-88620600D03*
X112699800Y-88620600D03*
X115239800Y-88620600D03*
X117779800Y-88620600D03*
X120319800Y-88620600D03*
X122859800Y-88620600D03*
X125399800Y-88620600D03*
X127939800Y-88620600D03*
X130479800Y-88620600D03*
X130479800Y-81000600D03*
X127939800Y-81000600D03*
X125399800Y-81000600D03*
X122859800Y-81000600D03*
X120319800Y-81000600D03*
X117779800Y-81000600D03*
X115239800Y-81000600D03*
X112699800Y-81000600D03*
X110159800Y-81000600D03*
X107619800Y-81000600D03*
D21*
X61920200Y-55935800D03*
D22*
X64460200Y-55935800D03*
X61920200Y-58475800D03*
X64460200Y-58475800D03*
X61920200Y-61015800D03*
X64460200Y-61015800D03*
X61920200Y-63555800D03*
X64460200Y-63555800D03*
X61920200Y-66095800D03*
X64460200Y-66095800D03*
D19*
X111529600Y-93472000D03*
X114479600Y-93472000D03*
D26*
X127210000Y-53220000D03*
X120710000Y-53220000D03*
X127210000Y-57720000D03*
X120710000Y-57720000D03*
D27*
X75464400Y-128701800D03*
X78764400Y-128701800D03*
D28*
X131655600Y-64770000D03*
D29*
X129655600Y-64770000D03*
D30*
X119507000Y-61285200D03*
X119507000Y-64235200D03*
D31*
X104419400Y-86233000D03*
X104419400Y-83283000D03*
D32*
X105511600Y-106629200D03*
D33*
X105511600Y-109169200D03*
X105511600Y-111709200D03*
X105511600Y-114249200D03*
X105511600Y-116789200D03*
X105511600Y-119329200D03*
X105511600Y-121869200D03*
X105511600Y-124409200D03*
X105511600Y-126949200D03*
X105511600Y-129489200D03*
X105511600Y-132029200D03*
X105511600Y-134569200D03*
X105511600Y-137109200D03*
X105511600Y-139649200D03*
X120751600Y-139649200D03*
X120751600Y-137109200D03*
X120751600Y-134569200D03*
X120751600Y-132029200D03*
X120751600Y-129489200D03*
X120751600Y-126949200D03*
X120751600Y-124409200D03*
X120751600Y-121869200D03*
X120751600Y-119329200D03*
X120751600Y-116789200D03*
X120751600Y-114249200D03*
X120751600Y-111709200D03*
X120751600Y-109169200D03*
X120751600Y-106629200D03*
D19*
X88645000Y-71650000D03*
X91595000Y-71650000D03*
D21*
X150744000Y-97160000D03*
D22*
X153284000Y-97160000D03*
X150744000Y-99700000D03*
X153284000Y-99700000D03*
X150744000Y-102240000D03*
X153284000Y-102240000D03*
X150744000Y-104780000D03*
X153284000Y-104780000D03*
X150744000Y-107320000D03*
X153284000Y-107320000D03*
X150744000Y-109860000D03*
X153284000Y-109860000D03*
X150744000Y-112400000D03*
X153284000Y-112400000D03*
X150744000Y-114940000D03*
X153284000Y-114940000D03*
X150744000Y-117480000D03*
X153284000Y-117480000D03*
X150744000Y-120020000D03*
X153284000Y-120020000D03*
X150744000Y-122560000D03*
X153284000Y-122560000D03*
X150744000Y-125100000D03*
X153284000Y-125100000D03*
X150744000Y-127640000D03*
X153284000Y-127640000D03*
X150744000Y-130180000D03*
X153284000Y-130180000D03*
X150744000Y-132720000D03*
X153284000Y-132720000D03*
X150744000Y-135260000D03*
X153284000Y-135260000D03*
X150744000Y-137800000D03*
X153284000Y-137800000D03*
X150744000Y-140340000D03*
X153284000Y-140340000D03*
X150744000Y-142880000D03*
X153284000Y-142880000D03*
X150744000Y-145420000D03*
X153284000Y-145420000D03*
D34*
X126400600Y-61622700D03*
X124500600Y-61622700D03*
X125450600Y-63497700D03*
D17*
X82550000Y-112471200D03*
D18*
X82550000Y-115011200D03*
X82550000Y-117551200D03*
X82550000Y-120091200D03*
X82550000Y-122631200D03*
X82550000Y-125171200D03*
X82550000Y-127711200D03*
X82550000Y-130251200D03*
X82550000Y-132791200D03*
X82550000Y-135331200D03*
X82550000Y-137871200D03*
X82550000Y-140411200D03*
X82550000Y-142951200D03*
X82550000Y-145491200D03*
X97790000Y-145491200D03*
X97790000Y-142951200D03*
X97790000Y-140411200D03*
X97790000Y-137871200D03*
X97790000Y-135331200D03*
X97790000Y-132791200D03*
X97790000Y-130251200D03*
X97790000Y-127711200D03*
X97790000Y-125171200D03*
X97790000Y-122631200D03*
X97790000Y-120091200D03*
X97790000Y-117551200D03*
X97790000Y-115011200D03*
X97790000Y-112471200D03*
D17*
X82468800Y-76652200D03*
D18*
X82468800Y-79192200D03*
X82468800Y-81732200D03*
X82468800Y-84272200D03*
X82468800Y-86812200D03*
X82468800Y-89352200D03*
X82468800Y-91892200D03*
X82468800Y-94432200D03*
X82468800Y-96972200D03*
X82468800Y-99512200D03*
X82468800Y-102052200D03*
X82468800Y-104592200D03*
X97708800Y-104592200D03*
X97708800Y-102052200D03*
X97708800Y-99512200D03*
X97708800Y-96972200D03*
X97708800Y-94432200D03*
X97708800Y-91892200D03*
X97708800Y-89352200D03*
X97708800Y-86812200D03*
X97708800Y-84272200D03*
X97708800Y-81732200D03*
X97708800Y-79192200D03*
X97708800Y-76652200D03*
D35*
X149987000Y-64627000D03*
D36*
X149987000Y-58627000D03*
D37*
X145287000Y-61627000D03*
D17*
X116179600Y-75742800D03*
D20*
X123799600Y-75742800D03*
X123799600Y-68122800D03*
X116179600Y-68122800D03*
D21*
X61899800Y-133807200D03*
D22*
X64439800Y-133807200D03*
X61899800Y-136347200D03*
X64439800Y-136347200D03*
X61899800Y-138887200D03*
X64439800Y-138887200D03*
X61899800Y-141427200D03*
X64439800Y-141427200D03*
X61899800Y-143967200D03*
X64439800Y-143967200D03*
D38*
X79375000Y-123343400D03*
X79375000Y-126643400D03*
D20*
X73050000Y-70020000D03*
X75590000Y-70020000D03*
X78130000Y-70020000D03*
X80670000Y-70020000D03*
X83210000Y-70020000D03*
X85750000Y-70020000D03*
D19*
X67308200Y-73152000D03*
X70258200Y-73152000D03*
X136447000Y-64008000D03*
X139397000Y-64008000D03*
M02*
